<svg version="1.1" id="Layer_1" xmlns="http://www.w3.org/2000/svg" xmlns:xlink="http://www.w3.org/1999/xlink" x="0px" y="0px"
	 width="100%" viewBox="0 0 496 496" enable-background="new 0 0 496 496" xml:space="preserve">
<path fill="#FFFEFF" opacity="1.000000" stroke="none" 
	d="
M497.000000,171.000000 
	C497.000000,279.999969 497.000000,388.499939 497.000000,496.999939 
	C331.666718,496.999939 166.333466,496.999939 1.000147,496.999969 
	C1.000098,331.666779 1.000098,166.333542 1.000049,1.000236 
	C166.333191,1.000157 331.666382,1.000157 496.999786,1.000079 
	C497.000000,57.500000 497.000000,114.000000 497.000000,171.000000 
M60.306602,183.347717 
	C51.931839,186.567566 44.209595,181.310760 35.709396,181.096771 
	C35.709396,183.982376 35.709396,186.465393 35.709396,189.793503 
	C30.891531,193.593704 29.664362,199.469269 33.427025,204.929245 
	C37.797096,211.270615 49.074055,213.631393 55.438080,209.537170 
	C60.983440,205.969589 62.081535,199.870056 58.378506,193.204071 
	C63.898296,190.189209 64.973862,185.995987 61.734867,182.750504 
	C62.873428,182.176880 64.634705,181.887024 65.046936,180.982407 
	C67.295692,176.047607 69.212532,170.961578 71.370811,165.612061 
	C69.005928,164.668610 67.120567,163.916458 65.305244,163.192245 
	C64.142044,165.291428 63.276653,166.853180 62.207935,168.781860 
	C58.857975,167.309631 55.437031,166.287369 52.631897,164.366013 
	C51.273556,163.435638 50.290722,160.675430 50.595772,159.010864 
	C50.832207,157.720688 53.252617,156.692764 54.861259,155.852905 
	C55.614429,155.459686 56.743061,155.785614 57.798145,155.785614 
	C58.435505,153.544937 59.009293,151.527740 59.590916,149.483002 
	C55.415447,147.341751 51.606819,146.615707 48.060135,149.589951 
	C44.066368,152.939117 43.777073,157.156479 45.801983,161.219635 
	C40.103252,162.967545 40.888878,168.385666 38.346500,172.245560 
	C40.760262,173.245987 42.549267,173.987488 44.394020,174.752090 
	C45.414787,173.224289 46.289230,171.915497 47.253445,170.472336 
	C51.582829,172.247696 55.632301,173.908279 59.692284,175.573166 
	C59.044945,177.709030 58.620987,179.107864 58.218853,180.434692 
	C59.254597,181.392975 60.162022,182.232529 60.306602,183.347717 
M408.903473,360.178009 
	C407.313293,359.027527 405.723114,357.877075 403.801605,356.486877 
	C406.812408,351.972351 409.618408,347.764862 412.579742,343.324493 
	C410.480621,341.942596 408.876373,340.886505 406.945862,339.615601 
	C403.284027,344.970612 399.568237,349.878632 396.549591,355.183380 
	C395.780945,356.534088 396.518433,360.102783 397.765686,361.022339 
	C406.970184,367.808167 416.479126,374.181122 427.104187,381.521179 
	C427.936951,377.896698 428.558594,375.191162 429.246002,372.199402 
	C436.557526,372.278442 440.957397,361.664246 437.123962,355.885620 
	C434.839905,352.442535 431.406158,349.484497 427.907837,347.197968 
	C423.934540,344.601013 419.296692,344.568176 415.223022,347.545258 
	C411.142242,350.527466 409.097778,354.490723 409.936310,360.069061 
	C409.813263,360.198212 409.690186,360.327362 408.903473,360.178009 
M199.980896,454.981903 
	C199.806152,454.847870 199.631409,454.713837 199.474976,453.764099 
	C200.813232,446.654266 202.151474,439.544403 203.514221,432.304474 
	C200.956009,431.825165 199.065430,431.470978 196.854507,431.056763 
	C194.264481,444.217377 191.777939,456.852142 189.236450,469.766113 
	C193.864609,470.646973 197.875717,471.410370 202.119400,472.218048 
	C204.840775,462.578217 207.421799,453.435455 210.002838,444.292694 
	C210.381195,444.380280 210.759552,444.467865 211.137909,444.555450 
	C210.047089,454.059387 208.956268,463.563324 207.827271,473.399933 
	C212.301178,474.295502 216.285568,475.093109 220.699738,475.976715 
	C223.288651,462.847046 225.778915,450.217590 228.322296,437.318817 
	C225.793396,436.775269 223.909760,436.370392 221.658005,435.886383 
	C219.946304,444.207458 218.322205,452.102722 216.698105,459.997955 
	C216.263123,459.903870 215.828156,459.809784 215.393188,459.715729 
	C216.274292,451.597046 217.155380,443.478394 218.055878,435.181030 
	C214.084442,434.402344 210.710815,433.740875 207.142807,433.041290 
	C204.838486,440.791473 202.665833,448.098816 199.980896,454.981903 
M131.154037,53.540524 
	C126.298721,57.507965 124.928848,62.546131 127.291809,68.251160 
	C129.710449,74.090599 133.085953,79.448914 140.221542,79.924576 
	C147.068939,80.381020 151.225021,76.533562 153.124313,69.234726 
	C154.697739,72.005775 155.804214,73.954468 157.121185,76.273888 
	C152.525620,79.209343 148.268036,81.928917 143.812714,84.774796 
	C145.086502,86.809364 146.115555,88.453018 147.356934,90.435829 
	C152.863037,87.087517 158.231247,84.127182 163.192490,80.595200 
	C164.454956,79.696442 165.490768,76.379074 164.821671,75.196945 
	C159.052002,65.003510 152.867905,55.044655 146.172409,43.965103 
	C143.895966,46.850159 142.282013,48.895584 140.557343,51.081329 
	C138.168152,51.625664 134.958206,52.356987 131.154037,53.540524 
M373.033844,62.534492 
	C371.218262,60.590069 369.062653,58.852306 367.709900,56.626606 
	C366.847015,55.206940 366.378540,52.077248 367.141022,51.463669 
	C368.489380,50.378613 371.180267,49.870907 372.833923,50.458763 
	C377.988098,52.291046 378.135284,56.592999 376.673584,61.174782 
	C378.692139,62.466732 380.440674,63.585846 382.084106,64.637703 
	C388.277954,58.363716 385.699371,47.681992 374.128967,43.144215 
	C368.663849,41.000870 363.536682,42.628342 360.420044,47.111805 
	C357.233246,51.696133 357.495422,55.957096 361.475861,60.783894 
	C363.377075,63.089432 365.952362,64.939011 367.428345,67.459999 
	C368.404999,69.128113 368.884644,72.741753 367.962799,73.493790 
	C366.435394,74.739876 363.287537,75.235184 361.374512,74.536018 
	C356.132050,72.620018 355.208344,68.754181 357.633057,61.567375 
	C355.789856,60.391006 353.899261,59.184391 352.027252,57.989655 
	C345.773956,67.214447 348.287933,75.923569 358.228363,81.031128 
	C364.506775,84.257088 370.226288,83.457016 374.071930,78.814781 
	C378.281616,73.733078 378.125061,69.294937 373.033844,62.534492 
M198.410355,54.769020 
	C202.274399,53.765114 206.234818,53.031303 209.980133,51.694706 
	C215.757721,49.632843 218.654770,45.260490 217.754990,39.281540 
	C216.866943,33.380592 215.508774,27.493183 213.716843,21.801321 
	C211.868851,15.931325 208.033127,13.341781 201.925995,13.981188 
	C195.885864,14.613579 189.942352,16.168713 183.755203,17.357759 
	C184.343536,21.137146 183.489639,25.011471 188.795670,24.344955 
	C190.441132,31.358070 192.059540,38.153862 193.605682,44.966053 
	C193.815109,45.888817 193.985947,47.588638 193.627670,47.755707 
	C188.909683,49.955803 192.185059,52.907265 192.423538,55.945164 
	C194.409149,55.552059 196.006546,55.235813 198.410355,54.769020 
M453.975555,288.699036 
	C449.881256,287.506042 445.786957,286.313080 441.300903,285.005951 
	C438.875641,293.369354 436.580444,301.284302 434.160278,309.630127 
	C436.658722,310.270844 438.782318,310.815430 441.020477,311.389374 
	C442.861237,305.419037 444.510986,300.068207 446.267914,294.369751 
	C449.194000,295.238373 451.666168,295.972260 454.552856,296.829193 
	C453.066925,302.320984 451.700714,307.370148 450.240814,312.765717 
	C452.621735,313.495819 454.709930,314.136169 456.989441,314.835205 
	C458.693756,309.133575 460.195557,304.109314 461.780579,298.806732 
	C464.890198,299.756836 467.464447,300.543335 470.107147,301.350769 
	C468.476501,307.213531 467.024872,312.432770 465.484894,317.969604 
	C468.025452,318.723267 470.007721,319.311340 472.312988,319.995209 
	C474.676544,311.763519 476.897736,304.027649 479.200989,296.006042 
	C470.674652,293.533203 462.715027,291.224701 453.975555,288.699036 
M222.692810,27.384792 
	C222.558472,31.464684 221.799744,35.647732 222.452316,39.597614 
	C223.219238,44.239594 226.343460,47.763470 231.185486,48.833908 
	C235.856476,49.866528 240.140732,49.111088 242.874893,43.584080 
	C245.261444,48.665417 248.866531,48.025940 252.916000,46.759804 
	C252.812057,44.943680 253.381790,42.593273 252.514648,41.785618 
	C247.640274,37.245705 250.201294,31.255428 249.024612,26.042913 
	C248.570953,24.033194 248.721710,21.887026 248.537933,18.813841 
	C245.243561,19.873873 242.788391,20.663870 239.416077,21.748981 
	C233.708206,17.694134 227.759628,19.034227 222.692810,27.384792 
M293.499207,27.879133 
	C291.548859,32.324909 288.810883,36.610676 287.866150,41.260761 
	C286.890869,46.061268 289.359131,50.398762 293.853516,52.934528 
	C297.822205,55.173710 301.799896,55.112354 304.418274,52.820133 
	C307.836060,54.807835 310.780243,56.520119 314.146423,58.477833 
	C314.920563,55.609219 316.211090,53.538620 315.636444,52.510262 
	C312.261841,46.471329 316.954956,41.493557 317.408081,36.009220 
	C317.564697,34.113411 318.324890,32.267475 318.988922,29.706348 
	C315.623047,29.706348 312.961365,29.706348 309.637909,29.706348 
	C306.039185,24.385067 301.039856,23.380682 293.499207,27.879133 
M175.736938,425.668488 
	C173.609421,423.728577 171.481903,421.788666 168.705582,419.257141 
	C167.489410,422.251099 165.969788,424.149567 166.422546,425.188385 
	C168.688004,430.386414 165.186096,434.322266 163.971603,438.717865 
	C163.189713,441.547852 161.973602,444.257843 160.597900,447.979980 
	C164.014969,448.309967 166.747986,448.573883 170.060867,448.893768 
	C173.975494,455.543915 182.867249,456.891266 187.977585,449.959412 
	C190.813553,446.112610 192.390442,440.690735 192.765671,435.841858 
	C193.225311,429.902283 187.439713,424.933167 181.849213,425.156006 
	C179.853546,425.235565 177.884155,425.974396 175.736938,425.668488 
M44.765175,223.420731 
	C44.765175,220.964157 44.765175,218.507568 44.765175,216.089264 
	C36.861691,214.170212 30.163565,217.544830 27.890684,224.478653 
	C25.475149,231.847672 28.822811,239.400131 35.748772,242.206772 
	C43.336060,245.281403 51.965160,242.509232 55.184193,235.962982 
	C58.529224,229.160477 56.797455,221.708725 50.859936,218.056763 
	C48.844349,220.556580 46.681007,222.484543 49.251324,226.427429 
	C51.628365,230.073837 49.025517,234.221054 43.931118,235.799042 
	C44.200104,231.868744 44.457195,228.112228 44.765175,223.420731 
M134.053329,399.508636 
	C132.911209,400.144043 131.496323,400.537384 130.677673,401.459839 
	C128.144150,404.314880 125.919304,407.442047 123.420189,410.329926 
	C120.887108,413.256989 117.830215,414.754669 114.295723,412.016144 
	C110.474770,409.055725 112.104523,405.901733 114.411957,402.939392 
	C117.364243,399.149109 120.400772,395.424500 123.679619,391.323059 
	C121.749573,389.755554 120.039337,388.366577 118.064812,386.762939 
	C113.774963,392.274536 109.678497,397.280090 105.885864,402.506165 
	C103.574287,405.691376 103.129623,409.353149 105.514824,412.765839 
	C107.847069,416.102814 110.959442,418.094940 115.313644,417.170593 
	C116.023880,417.019806 116.779579,417.083221 118.031273,417.022552 
	C114.642143,421.389404 111.611992,425.293732 108.377899,429.460815 
	C110.320732,430.974365 111.955757,432.248108 113.936142,433.790924 
	C122.266205,423.379761 130.298431,413.340851 138.458008,403.142792 
	C136.893509,401.828003 135.764420,400.879089 134.053329,399.508636 
M314.556702,439.198975 
	C311.034332,440.468811 307.511963,441.738647 304.025024,442.995728 
	C307.100189,452.673126 312.586823,456.765320 319.939514,455.300781 
	C327.699066,453.755157 332.428711,447.956879 331.969513,440.552582 
	C331.483154,432.711182 325.750519,426.320770 318.860718,425.939636 
	C311.124115,425.511688 305.032837,429.837250 303.925629,436.628265 
	C307.087921,437.914124 309.642639,438.583679 312.359711,434.978729 
	C315.044434,431.416779 319.753082,432.287323 322.798218,436.327240 
	C320.239746,437.235779 317.775116,438.110992 314.556702,439.198975 
M472.202637,242.427841 
	C476.013062,234.074646 473.603180,225.832672 466.337463,222.368530 
	C458.949402,218.846069 449.282349,221.808578 445.973969,228.609055 
	C442.622559,235.498047 445.018036,243.813965 451.422882,247.081421 
	C453.657227,244.450302 454.921783,242.248840 452.333099,238.553635 
	C449.696716,234.790390 452.113617,230.312439 457.158813,229.077881 
	C457.158813,235.651505 457.158813,242.060242 457.158813,248.572998 
	C463.613770,249.460297 468.317108,247.827881 472.202637,242.427841 
M335.766632,432.564728 
	C339.560638,440.729950 345.622040,443.987793 352.759338,441.697906 
	C359.929291,439.397491 364.219482,432.318970 362.671082,425.344055 
	C360.962860,417.649109 354.363037,412.114258 347.529572,412.645813 
	C340.028168,413.229309 334.364624,418.652588 334.191437,425.593292 
	C337.510468,426.374146 340.114197,426.703583 342.252991,422.667267 
	C344.373779,418.664886 349.584045,418.870483 352.464142,422.602081 
	C349.654999,424.120117 346.874725,425.581543 344.134613,427.114807 
	C341.390259,428.650391 338.686066,430.257782 335.766632,432.564728 
M63.068939,340.753357 
	C71.760437,336.880676 75.207512,331.655487 73.807877,324.474854 
	C72.486603,317.696259 67.917984,313.317535 61.932144,313.261932 
	C61.208851,316.276245 60.271553,318.806458 64.198479,321.069519 
	C68.253059,323.406158 67.896446,328.452606 63.940056,331.866791 
	C61.218025,325.788849 58.536449,319.801239 55.882416,313.875092 
	C46.713367,316.991272 42.829720,323.049011 44.819458,330.469055 
	C47.036674,338.737396 53.622940,342.684631 63.068939,340.753357 
M420.081512,131.719086 
	C416.345856,136.934204 416.429565,142.246445 419.829529,147.539337 
	C422.326965,151.427307 425.357880,154.544769 430.852478,153.874557 
	C431.051788,150.675049 432.041534,147.954254 427.832397,146.083191 
	C423.886017,144.328918 423.676117,139.581177 426.823242,135.061966 
	C430.301636,141.027771 433.658813,146.785736 436.974518,152.472519 
	C447.832703,147.051910 450.167267,137.044449 442.937073,129.437057 
	C436.849731,123.032127 428.357330,123.686867 420.081512,131.719086 
M279.457550,48.802917 
	C279.617584,46.900585 279.777618,44.998249 279.953613,42.906425 
	C277.554016,42.611252 275.676056,42.618820 273.971069,42.079533 
	C272.975128,41.764515 271.524048,40.565083 271.535339,39.781677 
	C271.591400,35.896187 272.066040,32.016731 272.413849,27.889969 
	C276.104645,28.148727 279.041229,28.354609 282.460205,28.594309 
	C282.630890,26.305046 282.784698,24.242104 282.955261,21.954418 
	C279.432831,21.502670 276.350952,21.107424 273.280304,20.713615 
	C273.498505,16.825422 273.698425,13.262955 273.915894,9.388040 
	C271.256073,9.247191 269.205872,9.138626 267.046906,9.024302 
	C266.540161,13.048425 266.109192,16.470541 265.684387,19.844097 
	C262.927887,19.844097 260.477905,19.844097 257.610229,19.844097 
	C257.432953,22.007284 257.266449,24.039520 257.087799,26.219440 
	C260.086426,26.642336 262.501984,26.983000 265.164459,27.358484 
	C264.852417,30.476177 264.490997,33.269886 264.306366,36.075233 
	C263.549164,47.578999 261.714203,48.576340 274.969360,49.234455 
	C276.281097,49.299580 277.594299,49.335007 279.457550,48.802917 
M459.559875,195.513443 
	C464.848999,200.070480 464.767395,203.585861 458.998535,209.302963 
	C459.955261,211.194885 460.954163,213.170242 461.964508,215.168213 
	C470.050720,210.537094 472.354645,203.688034 468.943878,195.804672 
	C465.913605,188.800751 458.502075,185.728577 450.540924,188.176407 
	C443.113800,190.460068 439.511475,196.852097 441.028137,205.056030 
	C442.391418,212.430298 447.372437,216.592255 454.622009,216.151596 
	C454.622009,214.080475 454.622009,211.987503 454.622009,209.894547 
	C451.803528,208.421249 448.931152,206.531586 448.097107,203.976517 
	C446.041870,197.680206 450.742828,194.032791 459.559875,195.513443 
M402.622711,93.902405 
	C403.666443,91.552040 405.558746,89.215210 405.596466,86.848808 
	C405.714478,79.449173 397.963013,72.696289 390.247498,72.861427 
	C382.640839,73.024246 375.127228,80.745323 375.345154,88.175285 
	C375.559753,95.491959 383.203308,103.164139 390.395264,102.797089 
	C393.098694,102.659126 395.740906,101.322632 398.917023,100.382812 
	C397.102905,97.692497 396.001343,96.058907 394.747864,94.200020 
	C390.375275,96.283073 386.066956,96.247101 384.002502,91.667778 
	C383.006805,89.459251 383.555939,85.828651 384.745789,83.538177 
	C386.350037,80.449905 389.697021,79.014565 393.341705,80.388512 
	C398.686737,82.403427 398.811798,86.790321 397.649078,91.395111 
	C399.278931,92.252220 400.599243,92.946548 402.622711,93.902405 
M456.556976,156.842987 
	C455.967194,155.537796 455.377441,154.232605 454.694397,152.720993 
	C445.843445,156.064163 437.395294,159.255173 428.680878,162.546753 
	C429.736969,165.119720 430.527832,167.046494 431.382660,169.129120 
	C436.183472,167.343552 440.475281,165.548431 444.895996,164.165192 
	C448.515930,163.032516 452.407196,162.495926 454.082031,167.186157 
	C455.769470,171.911636 452.572876,173.742233 448.836578,175.118103 
	C444.508423,176.711914 440.215363,178.400925 435.492920,180.207001 
	C436.394897,182.677780 437.143829,184.729431 437.933289,186.892014 
	C443.489136,184.815430 448.452026,182.947739 453.424500,181.105759 
	C457.826721,179.475006 461.703430,177.291199 461.998810,171.923523 
	C462.302551,166.405289 459.398163,163.015518 454.621765,161.522491 
	C455.415649,160.095459 456.120789,158.827957 456.556976,156.842987 
M137.663574,421.960693 
	C136.251648,421.651947 134.839722,421.343231 133.475861,421.045013 
	C130.860092,428.373383 133.997269,434.815125 141.502869,438.113251 
	C149.115753,441.458496 156.638870,438.482910 160.606537,430.557190 
	C164.228638,423.321716 161.976807,416.129486 154.720428,411.757538 
	C147.951797,407.679443 141.380249,408.753326 137.264847,414.750793 
	C138.769119,416.182373 140.293106,417.632721 141.798920,419.065796 
	C142.604034,418.545990 143.015106,418.293304 143.413193,418.021606 
	C146.859467,415.669250 150.039871,416.316254 152.888474,419.033356 
	C155.551147,421.573181 155.629089,424.547241 153.954758,427.690247 
	C152.106567,431.159576 149.316498,432.955780 145.361130,432.076263 
	C141.669312,431.255371 139.719528,428.888306 139.705856,424.940765 
	C139.702637,424.009094 138.881744,423.080231 137.663574,421.960693 
M123.653008,73.811378 
	C120.596535,70.022293 117.114189,66.781906 111.784073,68.258965 
	C106.704521,69.666588 104.323448,73.507744 104.173843,77.044800 
	C100.917648,78.557198 98.459763,79.698807 95.467590,81.088577 
	C102.153847,88.868439 108.070183,95.752464 114.145546,102.821526 
	C116.208099,100.950043 117.744331,99.556129 119.389229,98.063606 
	C116.028526,94.063972 112.984505,90.540237 110.054443,86.924156 
	C107.508095,83.781631 106.256889,80.374527 109.932564,77.268257 
	C113.593590,74.174370 116.396217,76.469322 118.857231,79.294258 
	C122.015366,82.919388 125.105850,86.603455 128.437134,90.510361 
	C130.415573,88.826424 132.106918,87.386841 133.888412,85.870537 
	C130.353622,81.719437 127.225105,78.045433 123.653008,73.811378 
M365.704559,416.826080 
	C367.280945,418.749969 368.670105,420.873749 370.469849,422.559113 
	C375.277466,427.061279 382.681458,425.845245 385.664398,420.074524 
	C386.514954,418.429047 386.729797,416.454987 387.259949,414.545990 
	C391.306824,418.944641 392.603577,413.945099 395.381378,412.714386 
	C389.643433,405.168488 384.158875,397.955811 378.522522,390.543518 
	C376.407806,392.110321 374.730621,393.352997 372.827484,394.763031 
	C375.977142,398.986542 378.941315,402.754303 381.673950,406.683105 
	C384.476135,410.711945 384.245178,414.375244 381.136139,416.338165 
	C377.260345,418.785187 374.606964,416.716827 372.304382,413.648865 
	C369.424957,409.812256 366.508057,406.003784 363.398773,401.908508 
	C361.378815,403.481903 359.617981,404.853485 357.776855,406.287598 
	C360.478516,409.898621 362.863251,413.086029 365.704559,416.826080 
M93.106468,358.650696 
	C92.060669,357.045685 91.014862,355.440704 89.917274,353.756226 
	C85.369507,356.688812 81.394730,359.413757 77.258934,361.867310 
	C73.980606,363.812164 70.546371,364.362976 68.070320,360.588348 
	C65.442619,356.582550 67.899033,354.119781 71.078415,352.026276 
	C75.190269,349.318726 79.302612,346.611938 83.587288,343.791199 
	C82.067619,341.527832 80.896912,339.784210 79.600502,337.853363 
	C73.957901,341.559448 68.490059,344.752869 63.474178,348.544189 
	C56.949200,353.476196 58.117146,362.638214 65.381470,365.454407 
	C66.632294,365.939331 68.007683,366.102997 69.561058,366.470825 
	C64.652115,370.263275 69.371498,372.058899 70.617142,375.207031 
	C78.418327,369.766937 85.860458,364.577209 93.106468,358.650696 
M79.989723,132.462265 
	C82.211174,133.780365 84.432632,135.098465 86.893623,136.558685 
	C88.246658,134.223099 89.276840,132.444809 90.470207,130.384857 
	C84.560295,126.873108 79.285919,123.391045 73.700813,120.511711 
	C67.269783,117.196266 60.266930,120.882133 59.442390,127.785683 
	C59.219540,129.651489 59.792034,131.612289 60.007187,133.600891 
	C54.779854,131.247452 55.208466,136.061478 53.170650,138.381775 
	C61.283939,143.267975 69.035408,147.936295 77.027397,152.749435 
	C78.459846,150.405960 79.539467,148.639709 80.700424,146.740402 
	C75.744308,143.630066 71.149010,140.966782 66.804710,137.942917 
	C63.868252,135.898956 62.934280,132.973984 65.075157,129.693497 
	C67.158417,126.501312 69.992981,126.697716 72.931923,128.265915 
	C75.127571,129.437485 77.217926,130.806381 79.989723,132.462265 
M452.811310,332.357025 
	C454.446625,330.797729 456.081940,329.238464 458.357147,327.069000 
	C448.971252,322.603638 440.800323,318.716278 432.316864,314.680237 
	C431.189392,317.004242 430.276398,318.886169 429.217529,321.068756 
	C434.108490,323.463409 438.769073,325.590912 443.276855,328.003906 
	C446.551819,329.756989 448.353699,332.501740 446.521698,336.271088 
	C444.577087,340.271942 441.291473,339.740540 437.988129,338.252930 
	C433.474976,336.220459 429.008087,334.085327 424.192291,331.840851 
	C423.119141,334.036316 422.198822,335.919098 421.143311,338.078461 
	C422.828339,338.970428 424.231384,339.788910 425.696564,340.474640 
	C430.215607,342.589722 434.624146,345.047760 439.322052,346.649963 
	C447.223663,349.344818 453.667267,342.964539 451.814636,334.706482 
	C451.635284,333.906952 451.987701,332.988129 452.811310,332.357025 
M290.331879,461.690186 
	C294.052216,461.331451 297.772552,460.972748 301.944946,460.570435 
	C301.431580,458.009003 301.054565,456.127838 300.644714,454.082886 
	C298.961578,454.007782 297.522888,453.943573 295.658295,453.860352 
	C294.940308,449.382660 294.244324,445.042206 293.536377,440.627167 
	C295.571991,440.022491 297.105621,439.566925 298.996277,439.005280 
	C298.555481,436.916870 298.160126,435.043671 297.660400,432.676086 
	C291.328003,433.718964 285.327148,434.707275 278.865326,435.771484 
	C279.231628,438.151215 279.544037,440.180603 279.869781,442.296631 
	C282.147797,442.158264 283.919678,442.050629 286.189758,441.912750 
	C286.771912,445.480743 287.716400,448.883759 287.708466,452.284576 
	C287.704803,453.850494 286.158997,456.043732 284.714355,456.781769 
	C283.491638,457.406372 280.337463,456.868805 279.883057,455.941437 
	C277.468781,451.014557 274.452789,453.379211 271.209747,454.535095 
	C271.764862,459.126862 273.139740,462.931580 277.875519,464.225800 
	C282.180481,465.402283 285.741547,464.247070 288.097046,460.177185 
	C288.138519,460.105560 289.328491,460.698639 290.331879,461.690186 
M44.059132,275.416016 
	C48.466373,274.957336 52.873615,274.498657 57.595100,274.007263 
	C56.775223,265.412781 56.007816,257.368256 55.201855,248.919662 
	C52.667633,249.103592 50.593849,249.254120 48.086681,249.436081 
	C48.577747,255.420471 49.033104,260.969666 49.538826,267.132660 
	C38.789528,268.243713 28.462013,269.311157 17.728294,270.420593 
	C17.953932,273.093445 18.141792,275.318787 18.353661,277.828522 
	C26.974937,277.037354 35.065365,276.294891 44.059132,275.416016 
M182.295334,66.204887 
	C175.558456,49.646420 168.821594,33.087948 161.978271,16.267826 
	C159.529587,17.255245 157.756683,17.970161 155.609222,18.836113 
	C162.845078,36.588482 169.896576,53.888527 177.605560,72.801659 
	C179.767685,70.261780 181.196701,68.583099 182.295334,66.204887 
M255.854935,462.500000 
	C255.854935,451.430267 255.854935,440.360504 255.854935,429.347168 
	C252.854233,429.347168 250.928726,429.347168 249.209259,429.347168 
	C249.209259,448.367493 249.209259,467.090363 249.209259,485.734924 
	C251.745789,485.734924 253.660980,485.734924 255.860397,485.734924 
	C255.860397,478.101105 255.860397,470.800537 255.854935,462.500000 
M395.649933,111.976524 
	C400.487854,118.016129 405.325775,124.055725 410.277649,130.237564 
	C412.253723,128.570526 413.742767,127.314354 415.387360,125.926971 
	C413.733856,123.671417 412.293335,121.706413 410.702209,119.535988 
	C416.163849,115.101265 421.427521,110.827293 426.972504,106.324905 
	C423.625244,102.154106 420.442596,98.188385 417.013916,93.916092 
	C415.112000,95.488579 413.512634,96.810905 411.842560,98.191704 
	C413.644592,100.618538 415.192871,102.703651 416.979248,105.109390 
	C413.292999,108.104424 409.871338,110.884460 406.215729,113.854584 
	C403.995117,111.366089 402.058105,109.195412 399.772736,106.634377 
	C398.129944,108.378563 396.715057,109.880753 395.649933,111.976524 
M92.546623,102.986015 
	C89.553062,100.456200 86.559509,97.926392 83.306732,95.177513 
	C79.654633,99.519875 76.407776,103.380402 73.023537,107.404289 
	C75.043808,108.989685 76.574806,110.191132 78.187744,111.456879 
	C80.250771,109.291046 82.041641,107.410919 84.089653,105.260841 
	C87.735466,108.360893 91.108238,111.228790 94.647507,114.238243 
	C92.609047,116.849915 90.818535,119.143921 88.899124,121.603065 
	C90.659431,123.096893 92.143517,124.356316 93.953064,125.891922 
	C99.335579,119.549347 104.537880,113.419128 109.904716,107.095032 
	C108.007942,105.522324 106.509224,104.279663 104.915901,102.958565 
	C103.109108,104.963631 101.469818,106.782799 99.667709,108.782661 
	C97.183388,106.767258 95.136734,105.106918 92.546623,102.986015 
M103.213257,381.259277 
	C105.001114,383.395447 106.788979,385.531586 108.668320,387.777069 
	C110.929176,385.712708 112.367752,384.399139 114.084961,382.831207 
	C108.482841,376.642578 103.092812,370.688232 97.527374,364.540100 
	C95.707794,366.249115 94.291313,367.579498 92.721436,369.053986 
	C94.416748,371.209106 95.913483,373.111786 97.610886,375.269562 
	C92.469490,380.022797 87.514214,384.603943 82.323021,389.403229 
	C85.988739,393.453247 89.385864,397.206573 92.821060,401.001923 
	C94.689629,399.353882 96.152374,398.063782 97.729607,396.672699 
	C95.892944,394.359924 94.274223,392.321564 92.293648,389.827576 
	C95.811272,386.810486 99.168915,383.930573 103.213257,381.259277 
M390.279541,388.733398 
	C391.339081,387.759766 392.398651,386.786163 393.618958,385.664825 
	C398.765137,390.470276 403.672394,395.052612 407.779327,398.887634 
	C412.080231,395.350922 415.909698,392.201904 419.177460,389.514801 
	C417.557861,387.173248 416.359558,385.440796 414.428894,382.649506 
	C412.328552,385.715057 410.819092,387.918121 409.037964,390.517761 
	C405.156616,386.535217 401.994080,383.290192 398.733765,379.944855 
	C400.811737,377.652618 402.668335,375.604584 404.234924,373.876434 
	C402.807495,371.847626 401.614838,370.152466 400.273468,368.245941 
	C394.036621,374.822998 388.607208,380.548523 382.615997,386.866516 
	C385.732208,387.392822 385.762390,393.143646 390.279541,388.733398 
M83.061516,400.438873 
	C82.635689,398.072876 82.812683,395.277771 81.551712,393.506226 
	C80.827194,392.488342 77.408646,392.401459 75.844818,393.181854 
	C72.970963,394.616089 72.122177,397.556488 74.127037,400.351898 
	C76.510445,403.675110 79.526871,403.867188 83.061516,400.438873 
M421.578644,400.023773 
	C417.427399,396.727844 413.046967,397.294403 412.290436,401.507599 
	C411.975586,403.260803 412.838470,406.028809 414.159088,407.046143 
	C415.476318,408.060944 419.020752,408.317291 419.834381,407.381256 
	C421.253326,405.748871 421.326050,402.946320 421.578644,400.023773 
M435.218536,101.791924 
	C437.440948,98.582893 436.990631,95.420868 433.609924,93.904526 
	C431.913177,93.143478 428.539429,93.872864 427.222504,95.208435 
	C426.122986,96.323540 426.121704,99.756325 427.038177,101.360420 
	C428.797394,104.439438 431.819885,104.482811 435.218536,101.791924 
M73.081825,87.469513 
	C70.004074,88.988014 68.085289,91.518768 69.980911,94.607216 
	C71.001503,96.270035 74.171036,97.900894 75.878914,97.491821 
	C77.576401,97.085236 79.673576,94.163773 79.786194,92.239258 
	C79.988800,88.777077 77.355942,87.077698 73.081825,87.469513 
z"/>
<path fill="#B8459A" opacity="1.000000" stroke="none" 
	d="
M200.493195,455.406158 
	C202.665833,448.098816 204.838486,440.791473 207.142807,433.041290 
	C210.710815,433.740875 214.084442,434.402344 218.055878,435.181030 
	C217.155380,443.478394 216.274292,451.597046 215.393188,459.715729 
	C215.828156,459.809784 216.263123,459.903870 216.698105,459.997955 
	C218.322205,452.102722 219.946304,444.207458 221.658005,435.886383 
	C223.909760,436.370392 225.793396,436.775269 228.322296,437.318817 
	C225.778915,450.217590 223.288651,462.847046 220.699738,475.976715 
	C216.285568,475.093109 212.301178,474.295502 207.827271,473.399933 
	C208.956268,463.563324 210.047089,454.059387 211.137909,444.555450 
	C210.759552,444.467865 210.381195,444.380280 210.002838,444.292694 
	C207.421799,453.435455 204.840775,462.578217 202.119400,472.218048 
	C197.875717,471.410370 193.864609,470.646973 189.236450,469.766113 
	C191.777939,456.852142 194.264481,444.217377 196.854507,431.056763 
	C199.065430,431.470978 200.956009,431.825165 203.514221,432.304474 
	C202.151474,439.544403 200.813232,446.654266 199.299469,454.483856 
	C198.975204,456.376373 198.826431,457.549103 198.448898,459.000000 
	C198.178879,460.139740 198.137619,461.001312 198.096375,461.862915 
	C198.288345,461.884308 198.480301,461.905670 198.672272,461.927063 
	C198.875488,461.028656 199.078705,460.130219 199.510956,458.975922 
	C199.991043,457.615417 200.242111,456.510773 200.493195,455.406158 
M198.014938,463.685303 
	C197.628250,464.205078 197.241562,464.724884 196.854874,465.244690 
	C197.079666,465.389313 197.304443,465.533936 197.529221,465.678558 
	C197.695175,465.257904 197.861130,464.837250 198.014938,463.685303 
z"/>
<path fill="#B84499" opacity="1.000000" stroke="none" 
	d="
M131.451157,53.314415 
	C134.958206,52.356987 138.168152,51.625664 140.557343,51.081329 
	C142.282013,48.895584 143.895966,46.850159 146.172409,43.965103 
	C152.867905,55.044655 159.052002,65.003510 164.821671,75.196945 
	C165.490768,76.379074 164.454956,79.696442 163.192490,80.595200 
	C158.231247,84.127182 152.863037,87.087517 147.356934,90.435829 
	C146.115555,88.453018 145.086502,86.809364 143.812714,84.774796 
	C148.268036,81.928917 152.525620,79.209343 157.121185,76.273888 
	C155.804214,73.954468 154.697739,72.005775 153.124313,69.234726 
	C151.225021,76.533562 147.068939,80.381020 140.221542,79.924576 
	C133.085953,79.448914 129.710449,74.090599 127.291809,68.251160 
	C124.928848,62.546131 126.298721,57.507965 131.451157,53.314415 
M136.534103,70.060600 
	C139.852768,73.284523 143.420609,73.055321 146.760437,70.352730 
	C149.725479,67.953423 149.906845,64.724251 148.282608,61.389088 
	C146.072662,56.851295 141.709213,55.308899 137.606583,57.572746 
	C133.302734,59.947617 132.773804,63.899258 136.534103,70.060600 
z"/>
<path fill="#B74298" opacity="1.000000" stroke="none" 
	d="
M410.315735,359.691559 
	C409.097778,354.490723 411.142242,350.527466 415.223022,347.545258 
	C419.296692,344.568176 423.934540,344.601013 427.907837,347.197968 
	C431.406158,349.484497 434.839905,352.442535 437.123962,355.885620 
	C440.957397,361.664246 436.557526,372.278442 429.246002,372.199402 
	C428.558594,375.191162 427.936951,377.896698 427.104187,381.521179 
	C416.479126,374.181122 406.970184,367.808167 397.765686,361.022339 
	C396.518433,360.102783 395.780945,356.534088 396.549591,355.183380 
	C399.568237,349.878632 403.284027,344.970612 406.945862,339.615601 
	C408.876373,340.886505 410.480621,341.942596 412.579742,343.324493 
	C409.618408,347.764862 406.812408,351.972351 403.801605,356.486877 
	C405.723114,357.877075 407.313293,359.027527 409.428528,360.477997 
	C410.188843,360.739197 410.424103,360.700378 410.659363,360.661560 
	C410.544830,360.338226 410.430267,360.014893 410.315735,359.691559 
M420.576782,368.125916 
	C425.745453,369.354431 429.428833,367.520081 430.700775,363.084198 
	C431.791748,359.279236 429.202972,355.130310 424.738556,353.528870 
	C421.035370,352.200500 417.036407,354.078094 415.525269,358.012665 
	C413.738220,362.665588 416.178741,365.548126 420.576782,368.125916 
z"/>
<path fill="#B84499" opacity="1.000000" stroke="none" 
	d="
M373.275452,62.808475 
	C378.125061,69.294937 378.281616,73.733078 374.071930,78.814781 
	C370.226288,83.457016 364.506775,84.257088 358.228363,81.031128 
	C348.287933,75.923569 345.773956,67.214447 352.027252,57.989655 
	C353.899261,59.184391 355.789856,60.391006 357.633057,61.567375 
	C355.208344,68.754181 356.132050,72.620018 361.374512,74.536018 
	C363.287537,75.235184 366.435394,74.739876 367.962799,73.493790 
	C368.884644,72.741753 368.404999,69.128113 367.428345,67.459999 
	C365.952362,64.939011 363.377075,63.089432 361.475861,60.783894 
	C357.495422,55.957096 357.233246,51.696133 360.420044,47.111805 
	C363.536682,42.628342 368.663849,41.000870 374.128967,43.144215 
	C385.699371,47.681992 388.277954,58.363716 382.084106,64.637703 
	C380.440674,63.585846 378.692139,62.466732 376.673584,61.174782 
	C378.135284,56.592999 377.988098,52.291046 372.833923,50.458763 
	C371.180267,49.870907 368.489380,50.378613 367.141022,51.463669 
	C366.378540,52.077248 366.847015,55.206940 367.709900,56.626606 
	C369.062653,58.852306 371.218262,60.590069 373.275452,62.808475 
z"/>
<path fill="#B84399" opacity="1.000000" stroke="none" 
	d="
M198.007141,54.844292 
	C196.006546,55.235813 194.409149,55.552059 192.423538,55.945164 
	C192.185059,52.907265 188.909683,49.955803 193.627670,47.755707 
	C193.985947,47.588638 193.815109,45.888817 193.605682,44.966053 
	C192.059540,38.153862 190.441132,31.358070 188.795670,24.344955 
	C183.489639,25.011471 184.343536,21.137146 183.755203,17.357759 
	C189.942352,16.168713 195.885864,14.613579 201.925995,13.981188 
	C208.033127,13.341781 211.868851,15.931325 213.716843,21.801321 
	C215.508774,27.493183 216.866943,33.380592 217.754990,39.281540 
	C218.654770,45.260490 215.757721,49.632843 209.980133,51.694706 
	C206.234818,53.031303 202.274399,53.765114 198.007141,54.844292 
M197.352982,28.197855 
	C198.759537,34.121311 200.166092,40.044769 201.552338,45.882725 
	C208.878983,45.746506 211.042725,43.309158 209.822205,36.793640 
	C209.243637,33.704975 208.478088,30.647556 207.700180,27.600763 
	C205.978424,20.857225 203.060165,19.574556 196.280396,22.630644 
	C196.570023,24.194061 196.867462,25.799620 197.352982,28.197855 
z"/>
<path fill="#B84599" opacity="1.000000" stroke="none" 
	d="
M454.365479,288.807617 
	C462.715027,291.224701 470.674652,293.533203 479.200989,296.006042 
	C476.897736,304.027649 474.676544,311.763519 472.312988,319.995209 
	C470.007721,319.311340 468.025452,318.723267 465.484894,317.969604 
	C467.024872,312.432770 468.476501,307.213531 470.107147,301.350769 
	C467.464447,300.543335 464.890198,299.756836 461.780579,298.806732 
	C460.195557,304.109314 458.693756,309.133575 456.989441,314.835205 
	C454.709930,314.136169 452.621735,313.495819 450.240814,312.765717 
	C451.700714,307.370148 453.066925,302.320984 454.552856,296.829193 
	C451.666168,295.972260 449.194000,295.238373 446.267914,294.369751 
	C444.510986,300.068207 442.861237,305.419037 441.020477,311.389374 
	C438.782318,310.815430 436.658722,310.270844 434.160278,309.630127 
	C436.580444,301.284302 438.875641,293.369354 441.300903,285.005951 
	C445.786957,286.313080 449.881256,287.506042 454.365479,288.807617 
z"/>
<path fill="#B8459A" opacity="1.000000" stroke="none" 
	d="
M60.993816,183.007980 
	C64.973862,185.995987 63.898296,190.189209 58.378506,193.204071 
	C62.081535,199.870056 60.983440,205.969589 55.438080,209.537170 
	C49.074055,213.631393 37.797096,211.270615 33.427025,204.929245 
	C29.664362,199.469269 30.891531,193.593704 35.709396,189.793503 
	C35.709396,186.465393 35.709396,183.982376 35.709396,181.096771 
	C44.209595,181.310760 51.931839,186.567566 60.669601,183.193268 
	C61.032600,183.038834 60.993816,183.007980 60.993816,183.007980 
M45.478043,190.406235 
	C40.083546,191.596375 37.862228,194.410049 38.831352,198.825409 
	C39.621983,202.427536 44.188175,204.864578 48.832893,204.163376 
	C52.489044,203.611420 54.804893,200.428421 54.226685,196.566589 
	C53.541626,191.991058 49.915497,191.180725 45.478043,190.406235 
z"/>
<path fill="#B84499" opacity="1.000000" stroke="none" 
	d="
M222.838318,27.031630 
	C227.759628,19.034227 233.708206,17.694134 239.416077,21.748981 
	C242.788391,20.663870 245.243561,19.873873 248.537933,18.813841 
	C248.721710,21.887026 248.570953,24.033194 249.024612,26.042913 
	C250.201294,31.255428 247.640274,37.245705 252.514648,41.785618 
	C253.381790,42.593273 252.812057,44.943680 252.916000,46.759804 
	C248.866531,48.025940 245.261444,48.665417 242.874893,43.584080 
	C240.140732,49.111088 235.856476,49.866528 231.185486,48.833908 
	C226.343460,47.763470 223.219238,44.239594 222.452316,39.597614 
	C221.799744,35.647732 222.558472,31.464684 222.838318,27.031630 
M242.233810,34.498558 
	C242.159515,30.494385 240.953140,27.261709 236.413239,26.635448 
	C232.341507,26.073771 229.345001,28.542812 228.888855,32.639473 
	C228.306519,37.869534 230.532043,41.640289 234.507538,42.159313 
	C238.921555,42.735588 241.311050,40.629715 242.233810,34.498558 
z"/>
<path fill="#B84399" opacity="1.000000" stroke="none" 
	d="
M293.787109,27.634199 
	C301.039856,23.380682 306.039185,24.385067 309.637909,29.706348 
	C312.961365,29.706348 315.623047,29.706348 318.988922,29.706348 
	C318.324890,32.267475 317.564697,34.113411 317.408081,36.009220 
	C316.954956,41.493557 312.261841,46.471329 315.636444,52.510262 
	C316.211090,53.538620 314.920563,55.609219 314.146423,58.477833 
	C310.780243,56.520119 307.836060,54.807835 304.418274,52.820133 
	C301.799896,55.112354 297.822205,55.173710 293.853516,52.934528 
	C289.359131,50.398762 286.890869,46.061268 287.866150,41.260761 
	C288.810883,36.610676 291.548859,32.324909 293.787109,27.634199 
M297.762512,46.910709 
	C301.297607,48.802414 304.635437,48.785923 306.952850,45.171070 
	C308.995270,41.985210 310.460083,38.088097 307.420258,35.053150 
	C305.761810,33.397362 302.234222,32.242722 300.032288,32.793110 
	C295.702942,33.875233 294.803558,38.055309 295.050293,42.065533 
	C295.142242,43.559765 296.388794,44.982956 297.762512,46.910709 
z"/>
<path fill="#B84399" opacity="1.000000" stroke="none" 
	d="
M175.819855,426.040405 
	C177.884155,425.974396 179.853546,425.235565 181.849213,425.156006 
	C187.439713,424.933167 193.225311,429.902283 192.765671,435.841858 
	C192.390442,440.690735 190.813553,446.112610 187.977585,449.959412 
	C182.867249,456.891266 173.975494,455.543915 170.060867,448.893768 
	C166.747986,448.573883 164.014969,448.309967 160.597900,447.979980 
	C161.973602,444.257843 163.189713,441.547852 163.971603,438.717865 
	C165.186096,434.322266 168.688004,430.386414 166.422546,425.188385 
	C165.969788,424.149567 167.489410,422.251099 168.705582,419.257141 
	C171.481903,421.788666 173.609421,423.728577 175.819855,426.040405 
M176.901718,446.870026 
	C181.043793,447.592896 183.978271,445.604401 184.767654,441.881073 
	C185.341614,439.173828 185.007019,435.702637 183.675110,433.374268 
	C182.859985,431.949249 178.533356,430.831940 177.301224,431.708771 
	C174.906815,433.412750 172.963242,436.403961 171.973114,439.257538 
	C170.807571,442.616638 172.775284,445.273499 176.901718,446.870026 
z"/>
<path fill="#B84499" opacity="1.000000" stroke="none" 
	d="
M44.739731,223.888229 
	C44.457195,228.112228 44.200104,231.868744 43.931118,235.799042 
	C49.025517,234.221054 51.628365,230.073837 49.251324,226.427429 
	C46.681007,222.484543 48.844349,220.556580 50.859936,218.056763 
	C56.797455,221.708725 58.529224,229.160477 55.184193,235.962982 
	C51.965160,242.509232 43.336060,245.281403 35.748772,242.206772 
	C28.822811,239.400131 25.475149,231.847672 27.890684,224.478653 
	C30.163565,217.544830 36.861691,214.170212 44.765175,216.089264 
	C44.765175,218.507568 44.765175,220.964157 44.739731,223.888229 
M38.251488,225.859985 
	C38.133926,224.978378 38.016365,224.096771 37.898804,223.215179 
	C37.307941,223.062347 36.717083,222.909531 36.126221,222.756699 
	C35.345753,225.126968 34.016644,227.485641 33.966183,229.871338 
	C33.928833,231.637360 35.555164,233.438568 36.440338,235.224091 
	C36.911793,235.021378 37.383244,234.818680 37.854698,234.615967 
	C37.973427,231.995605 38.092155,229.375259 38.251488,225.859985 
z"/>
<path fill="#B84599" opacity="1.000000" stroke="none" 
	d="
M134.344330,399.719421 
	C135.764420,400.879089 136.893509,401.828003 138.458008,403.142792 
	C130.298431,413.340851 122.266205,423.379761 113.936142,433.790924 
	C111.955757,432.248108 110.320732,430.974365 108.377899,429.460815 
	C111.611992,425.293732 114.642143,421.389404 118.031273,417.022552 
	C116.779579,417.083221 116.023880,417.019806 115.313644,417.170593 
	C110.959442,418.094940 107.847069,416.102814 105.514824,412.765839 
	C103.129623,409.353149 103.574287,405.691376 105.885864,402.506165 
	C109.678497,397.280090 113.774963,392.274536 118.064812,386.762939 
	C120.039337,388.366577 121.749573,389.755554 123.679619,391.323059 
	C120.400772,395.424500 117.364243,399.149109 114.411957,402.939392 
	C112.104523,405.901733 110.474770,409.055725 114.295723,412.016144 
	C117.830215,414.754669 120.887108,413.256989 123.420189,410.329926 
	C125.919304,407.442047 128.144150,404.314880 130.677673,401.459839 
	C131.496323,400.537384 132.911209,400.144043 134.344330,399.719421 
z"/>
<path fill="#B84399" opacity="1.000000" stroke="none" 
	d="
M314.933594,439.092590 
	C317.775116,438.110992 320.239746,437.235779 322.798218,436.327240 
	C319.753082,432.287323 315.044434,431.416779 312.359711,434.978729 
	C309.642639,438.583679 307.087921,437.914124 303.925629,436.628265 
	C305.032837,429.837250 311.124115,425.511688 318.860718,425.939636 
	C325.750519,426.320770 331.483154,432.711182 331.969513,440.552582 
	C332.428711,447.956879 327.699066,453.755157 319.939514,455.300781 
	C312.586823,456.765320 307.100189,452.673126 304.025024,442.995728 
	C307.511963,441.738647 311.034332,440.468811 314.933594,439.092590 
M318.113037,444.488556 
	C316.486237,445.120667 314.859436,445.752747 313.232635,446.384857 
	C313.226074,446.924744 313.219513,447.464661 313.212952,448.004578 
	C315.569489,448.211273 318.149017,449.102875 320.218933,448.429047 
	C322.225952,447.775696 323.709351,445.514008 325.422699,443.958649 
	C325.068451,443.508057 324.714203,443.057465 324.359955,442.606903 
	C322.522766,443.138153 320.685577,443.669403 318.113037,444.488556 
z"/>
<path fill="#B84499" opacity="1.000000" stroke="none" 
	d="
M472.015564,242.761780 
	C468.317108,247.827881 463.613770,249.460297 457.158813,248.572998 
	C457.158813,242.060242 457.158813,235.651505 457.158813,229.077881 
	C452.113617,230.312439 449.696716,234.790390 452.333099,238.553635 
	C454.921783,242.248840 453.657227,244.450302 451.422882,247.081421 
	C445.018036,243.813965 442.622559,235.498047 445.973969,228.609055 
	C449.282349,221.808578 458.949402,218.846069 466.337463,222.368530 
	C473.603180,225.832672 476.013062,234.074646 472.015564,242.761780 
M467.663300,233.864639 
	C466.570557,232.115707 465.477814,230.366760 464.385071,228.617828 
	C464.084473,228.851151 463.783875,229.084473 463.483276,229.317780 
	C463.483276,233.142471 463.483276,236.967178 463.483276,240.791870 
	C464.035889,240.955795 464.588470,241.119705 465.141083,241.283630 
	C466.013672,239.062500 466.886292,236.841354 467.663300,233.864639 
z"/>
<path fill="#B84399" opacity="1.000000" stroke="none" 
	d="
M335.865479,432.199219 
	C338.686066,430.257782 341.390259,428.650391 344.134613,427.114807 
	C346.874725,425.581543 349.654999,424.120117 352.464142,422.602081 
	C349.584045,418.870483 344.373779,418.664886 342.252991,422.667267 
	C340.114197,426.703583 337.510468,426.374146 334.191437,425.593292 
	C334.364624,418.652588 340.028168,413.229309 347.529572,412.645813 
	C354.363037,412.114258 360.962860,417.649109 362.671082,425.344055 
	C364.219482,432.318970 359.929291,439.397491 352.759338,441.697906 
	C345.622040,443.987793 339.560638,440.729950 335.865479,432.199219 
M354.198273,428.686554 
	C351.108368,430.361847 348.018433,432.037140 343.670135,434.394684 
	C346.450958,435.145050 347.782684,435.818695 349.107147,435.804779 
	C353.639496,435.757019 356.648315,431.734192 354.198273,428.686554 
z"/>
<path fill="#B84399" opacity="1.000000" stroke="none" 
	d="
M62.695198,340.855804 
	C53.622940,342.684631 47.036674,338.737396 44.819458,330.469055 
	C42.829720,323.049011 46.713367,316.991272 55.882416,313.875092 
	C58.536449,319.801239 61.218025,325.788849 63.940056,331.866791 
	C67.896446,328.452606 68.253059,323.406158 64.198479,321.069519 
	C60.271553,318.806458 61.208851,316.276245 61.932144,313.261932 
	C67.917984,313.317535 72.486603,317.696259 73.807877,324.474854 
	C75.207512,331.655487 71.760437,336.880676 62.695198,340.855804 
M51.642838,330.470642 
	C53.368160,332.082123 55.093487,333.693573 56.818810,335.305054 
	C57.272694,334.900726 57.726578,334.496399 58.180462,334.092102 
	C56.506748,330.396454 54.833035,326.700806 53.159321,323.005157 
	C52.539726,323.111786 51.920132,323.218414 51.300537,323.325073 
	C51.300537,325.470978 51.300537,327.616882 51.642838,330.470642 
z"/>
<path fill="#B84399" opacity="1.000000" stroke="none" 
	d="
M420.321320,131.440628 
	C428.357330,123.686867 436.849731,123.032127 442.937073,129.437057 
	C450.167267,137.044449 447.832703,147.051910 436.974518,152.472519 
	C433.658813,146.785736 430.301636,141.027771 426.823242,135.061966 
	C423.676117,139.581177 423.886017,144.328918 427.832397,146.083191 
	C432.041534,147.954254 431.051788,150.675049 430.852478,153.874557 
	C425.357880,154.544769 422.326965,151.427307 419.829529,147.539337 
	C416.429565,142.246445 416.345856,136.934204 420.321320,131.440628 
M435.235138,132.032257 
	C434.630127,132.698853 433.374695,133.690018 433.520416,133.982025 
	C435.036102,137.019379 436.777130,139.944275 438.592712,143.141800 
	C441.656281,138.304291 440.980988,135.927505 435.235138,132.032257 
z"/>
<path fill="#B9459A" opacity="1.000000" stroke="none" 
	d="
M279.182190,49.093567 
	C277.594299,49.335007 276.281097,49.299580 274.969360,49.234455 
	C261.714203,48.576340 263.549164,47.578999 264.306366,36.075233 
	C264.490997,33.269886 264.852417,30.476177 265.164459,27.358484 
	C262.501984,26.983000 260.086426,26.642336 257.087799,26.219440 
	C257.266449,24.039520 257.432953,22.007284 257.610229,19.844097 
	C260.477905,19.844097 262.927887,19.844097 265.684387,19.844097 
	C266.109192,16.470541 266.540161,13.048425 267.046906,9.024302 
	C269.205872,9.138626 271.256073,9.247191 273.915894,9.388040 
	C273.698425,13.262955 273.498505,16.825422 273.280304,20.713615 
	C276.350952,21.107424 279.432831,21.502670 282.955261,21.954418 
	C282.784698,24.242104 282.630890,26.305046 282.460205,28.594309 
	C279.041229,28.354609 276.104645,28.148727 272.413849,27.889969 
	C272.066040,32.016731 271.591400,35.896187 271.535339,39.781677 
	C271.524048,40.565083 272.975128,41.764515 273.971069,42.079533 
	C275.676056,42.618820 277.554016,42.611252 279.953613,42.906425 
	C279.777618,44.998249 279.617584,46.900585 279.182190,49.093567 
z"/>
<path fill="#B8459A" opacity="1.000000" stroke="none" 
	d="
M459.183228,195.336075 
	C450.742828,194.032791 446.041870,197.680206 448.097107,203.976517 
	C448.931152,206.531586 451.803528,208.421249 454.622009,209.894547 
	C454.622009,211.987503 454.622009,214.080475 454.622009,216.151596 
	C447.372437,216.592255 442.391418,212.430298 441.028137,205.056030 
	C439.511475,196.852097 443.113800,190.460068 450.540924,188.176407 
	C458.502075,185.728577 465.913605,188.800751 468.943878,195.804672 
	C472.354645,203.688034 470.050720,210.537094 461.964508,215.168213 
	C460.954163,213.170242 459.955261,211.194885 458.998535,209.302963 
	C464.767395,203.585861 464.848999,200.070480 459.183228,195.336075 
z"/>
<path fill="#B84599" opacity="1.000000" stroke="none" 
	d="
M402.271118,93.771645 
	C400.599243,92.946548 399.278931,92.252220 397.649078,91.395111 
	C398.811798,86.790321 398.686737,82.403427 393.341705,80.388512 
	C389.697021,79.014565 386.350037,80.449905 384.745789,83.538177 
	C383.555939,85.828651 383.006805,89.459251 384.002502,91.667778 
	C386.066956,96.247101 390.375275,96.283073 394.747864,94.200020 
	C396.001343,96.058907 397.102905,97.692497 398.917023,100.382812 
	C395.740906,101.322632 393.098694,102.659126 390.395264,102.797089 
	C383.203308,103.164139 375.559753,95.491959 375.345154,88.175285 
	C375.127228,80.745323 382.640839,73.024246 390.247498,72.861427 
	C397.963013,72.696289 405.714478,79.449173 405.596466,86.848808 
	C405.558746,89.215210 403.666443,91.552040 402.271118,93.771645 
z"/>
<path fill="#B84599" opacity="1.000000" stroke="none" 
	d="
M456.691437,157.201721 
	C456.120789,158.827957 455.415649,160.095459 454.621765,161.522491 
	C459.398163,163.015518 462.302551,166.405289 461.998810,171.923523 
	C461.703430,177.291199 457.826721,179.475006 453.424500,181.105759 
	C448.452026,182.947739 443.489136,184.815430 437.933289,186.892014 
	C437.143829,184.729431 436.394897,182.677780 435.492920,180.207001 
	C440.215363,178.400925 444.508423,176.711914 448.836578,175.118103 
	C452.572876,173.742233 455.769470,171.911636 454.082031,167.186157 
	C452.407196,162.495926 448.515930,163.032516 444.895996,164.165192 
	C440.475281,165.548431 436.183472,167.343552 431.382660,169.129120 
	C430.527832,167.046494 429.736969,165.119720 428.680878,162.546753 
	C437.395294,159.255173 445.843445,156.064163 454.694397,152.720993 
	C455.377441,154.232605 455.967194,155.537796 456.691437,157.201721 
z"/>
<path fill="#B84499" opacity="1.000000" stroke="none" 
	d="
M138.050293,422.055389 
	C138.881744,423.080231 139.702637,424.009094 139.705856,424.940765 
	C139.719528,428.888306 141.669312,431.255371 145.361130,432.076263 
	C149.316498,432.955780 152.106567,431.159576 153.954758,427.690247 
	C155.629089,424.547241 155.551147,421.573181 152.888474,419.033356 
	C150.039871,416.316254 146.859467,415.669250 143.413193,418.021606 
	C143.015106,418.293304 142.604034,418.545990 141.798920,419.065796 
	C140.293106,417.632721 138.769119,416.182373 137.264847,414.750793 
	C141.380249,408.753326 147.951797,407.679443 154.720428,411.757538 
	C161.976807,416.129486 164.228638,423.321716 160.606537,430.557190 
	C156.638870,438.482910 149.115753,441.458496 141.502869,438.113251 
	C133.997269,434.815125 130.860092,428.373383 133.475861,421.045013 
	C134.839722,421.343231 136.251648,421.651947 138.050293,422.055389 
z"/>
<path fill="#B84599" opacity="1.000000" stroke="none" 
	d="
M123.874794,74.091400 
	C127.225105,78.045433 130.353622,81.719437 133.888412,85.870537 
	C132.106918,87.386841 130.415573,88.826424 128.437134,90.510361 
	C125.105850,86.603455 122.015366,82.919388 118.857231,79.294258 
	C116.396217,76.469322 113.593590,74.174370 109.932564,77.268257 
	C106.256889,80.374527 107.508095,83.781631 110.054443,86.924156 
	C112.984505,90.540237 116.028526,94.063972 119.389229,98.063606 
	C117.744331,99.556129 116.208099,100.950043 114.145546,102.821526 
	C108.070183,95.752464 102.153847,88.868439 95.467590,81.088577 
	C98.459763,79.698807 100.917648,78.557198 104.173843,77.044800 
	C104.323448,73.507744 106.704521,69.666588 111.784073,68.258965 
	C117.114189,66.781906 120.596535,70.022293 123.874794,74.091400 
z"/>
<path fill="#B84499" opacity="1.000000" stroke="none" 
	d="
M365.476257,416.549744 
	C362.863251,413.086029 360.478516,409.898621 357.776855,406.287598 
	C359.617981,404.853485 361.378815,403.481903 363.398773,401.908508 
	C366.508057,406.003784 369.424957,409.812256 372.304382,413.648865 
	C374.606964,416.716827 377.260345,418.785187 381.136139,416.338165 
	C384.245178,414.375244 384.476135,410.711945 381.673950,406.683105 
	C378.941315,402.754303 375.977142,398.986542 372.827484,394.763031 
	C374.730621,393.352997 376.407806,392.110321 378.522522,390.543518 
	C384.158875,397.955811 389.643433,405.168488 395.381378,412.714386 
	C392.603577,413.945099 391.306824,418.944641 387.259949,414.545990 
	C386.729797,416.454987 386.514954,418.429047 385.664398,420.074524 
	C382.681458,425.845245 375.277466,427.061279 370.469849,422.559113 
	C368.670105,420.873749 367.280945,418.749969 365.476257,416.549744 
z"/>
<path fill="#B84599" opacity="1.000000" stroke="none" 
	d="
M93.204529,359.019104 
	C85.860458,364.577209 78.418327,369.766937 70.617142,375.207031 
	C69.371498,372.058899 64.652115,370.263275 69.561058,366.470825 
	C68.007683,366.102997 66.632294,365.939331 65.381470,365.454407 
	C58.117146,362.638214 56.949200,353.476196 63.474178,348.544189 
	C68.490059,344.752869 73.957901,341.559448 79.600502,337.853363 
	C80.896912,339.784210 82.067619,341.527832 83.587288,343.791199 
	C79.302612,346.611938 75.190269,349.318726 71.078415,352.026276 
	C67.899033,354.119781 65.442619,356.582550 68.070320,360.588348 
	C70.546371,364.362976 73.980606,363.812164 77.258934,361.867310 
	C81.394730,359.413757 85.369507,356.688812 89.917274,353.756226 
	C91.014862,355.440704 92.060669,357.045685 93.204529,359.019104 
z"/>
<path fill="#B84499" opacity="1.000000" stroke="none" 
	d="
M79.672447,132.274841 
	C77.217926,130.806381 75.127571,129.437485 72.931923,128.265915 
	C69.992981,126.697716 67.158417,126.501312 65.075157,129.693497 
	C62.934280,132.973984 63.868252,135.898956 66.804710,137.942917 
	C71.149010,140.966782 75.744308,143.630066 80.700424,146.740402 
	C79.539467,148.639709 78.459846,150.405960 77.027397,152.749435 
	C69.035408,147.936295 61.283939,143.267975 53.170650,138.381775 
	C55.208466,136.061478 54.779854,131.247452 60.007187,133.600891 
	C59.792034,131.612289 59.219540,129.651489 59.442390,127.785683 
	C60.266930,120.882133 67.269783,117.196266 73.700813,120.511711 
	C79.285919,123.391045 84.560295,126.873108 90.470207,130.384857 
	C89.276840,132.444809 88.246658,134.223099 86.893623,136.558685 
	C84.432632,135.098465 82.211174,133.780365 79.672447,132.274841 
z"/>
<path fill="#B9459A" opacity="1.000000" stroke="none" 
	d="
M452.452271,332.240845 
	C451.987701,332.988129 451.635284,333.906952 451.814636,334.706482 
	C453.667267,342.964539 447.223663,349.344818 439.322052,346.649963 
	C434.624146,345.047760 430.215607,342.589722 425.696564,340.474640 
	C424.231384,339.788910 422.828339,338.970428 421.143311,338.078461 
	C422.198822,335.919098 423.119141,334.036316 424.192291,331.840851 
	C429.008087,334.085327 433.474976,336.220459 437.988129,338.252930 
	C441.291473,339.740540 444.577087,340.271942 446.521698,336.271088 
	C448.353699,332.501740 446.551819,329.756989 443.276855,328.003906 
	C438.769073,325.590912 434.108490,323.463409 429.217529,321.068756 
	C430.276398,318.886169 431.189392,317.004242 432.316864,314.680237 
	C440.800323,318.716278 448.971252,322.603638 458.357147,327.069000 
	C456.081940,329.238464 454.446625,330.797729 452.452271,332.240845 
z"/>
<path fill="#B8459A" opacity="1.000000" stroke="none" 
	d="
M290.157227,461.335876 
	C289.328491,460.698639 288.138519,460.105560 288.097046,460.177185 
	C285.741547,464.247070 282.180481,465.402283 277.875519,464.225800 
	C273.139740,462.931580 271.764862,459.126862 271.209747,454.535095 
	C274.452789,453.379211 277.468781,451.014557 279.883057,455.941437 
	C280.337463,456.868805 283.491638,457.406372 284.714355,456.781769 
	C286.158997,456.043732 287.704803,453.850494 287.708466,452.284576 
	C287.716400,448.883759 286.771912,445.480743 286.189758,441.912750 
	C283.919678,442.050629 282.147797,442.158264 279.869781,442.296631 
	C279.544037,440.180603 279.231628,438.151215 278.865326,435.771484 
	C285.327148,434.707275 291.328003,433.718964 297.660400,432.676086 
	C298.160126,435.043671 298.555481,436.916870 298.996277,439.005280 
	C297.105621,439.566925 295.571991,440.022491 293.536377,440.627167 
	C294.244324,445.042206 294.940308,449.382660 295.658295,453.860352 
	C297.522888,453.943573 298.961578,454.007782 300.644714,454.082886 
	C301.054565,456.127838 301.431580,458.009003 301.944946,460.570435 
	C297.772552,460.972748 294.052216,461.331451 290.157227,461.335876 
z"/>
<path fill="#B84499" opacity="1.000000" stroke="none" 
	d="
M61.051022,183.055450 
	C60.162022,182.232529 59.254597,181.392975 58.218853,180.434692 
	C58.620987,179.107864 59.044945,177.709030 59.692284,175.573166 
	C55.632301,173.908279 51.582829,172.247696 47.253445,170.472336 
	C46.289230,171.915497 45.414787,173.224289 44.394020,174.752090 
	C42.549267,173.987488 40.760262,173.245987 38.346500,172.245560 
	C40.888878,168.385666 40.103252,162.967545 45.801983,161.219635 
	C43.777073,157.156479 44.066368,152.939117 48.060135,149.589951 
	C51.606819,146.615707 55.415447,147.341751 59.590916,149.483002 
	C59.009293,151.527740 58.435505,153.544937 57.798145,155.785614 
	C56.743061,155.785614 55.614429,155.459686 54.861259,155.852905 
	C53.252617,156.692764 50.832207,157.720688 50.595772,159.010864 
	C50.290722,160.675430 51.273556,163.435638 52.631897,164.366013 
	C55.437031,166.287369 58.857975,167.309631 62.207935,168.781860 
	C63.276653,166.853180 64.142044,165.291428 65.305244,163.192245 
	C67.120567,163.916458 69.005928,164.668610 71.370811,165.612061 
	C69.212532,170.961578 67.295692,176.047607 65.046936,180.982407 
	C64.634705,181.887024 62.873428,182.176880 61.364342,182.879242 
	C60.993816,183.007980 61.032600,183.038834 61.051022,183.055450 
z"/>
<path fill="#B84499" opacity="1.000000" stroke="none" 
	d="
M43.607464,275.484222 
	C35.065365,276.294891 26.974937,277.037354 18.353661,277.828522 
	C18.141792,275.318787 17.953932,273.093445 17.728294,270.420593 
	C28.462013,269.311157 38.789528,268.243713 49.538826,267.132660 
	C49.033104,260.969666 48.577747,255.420471 48.086681,249.436081 
	C50.593849,249.254120 52.667633,249.103592 55.201855,248.919662 
	C56.007816,257.368256 56.775223,265.412781 57.595100,274.007263 
	C52.873615,274.498657 48.466373,274.957336 43.607464,275.484222 
z"/>
<path fill="#B8459A" opacity="1.000000" stroke="none" 
	d="
M182.460510,66.554657 
	C181.196701,68.583099 179.767685,70.261780 177.605560,72.801659 
	C169.896576,53.888527 162.845078,36.588482 155.609222,18.836113 
	C157.756683,17.970161 159.529587,17.255245 161.978271,16.267826 
	C168.821594,33.087948 175.558456,49.646420 182.460510,66.554657 
z"/>
<path fill="#B9469A" opacity="1.000000" stroke="none" 
	d="
M255.857666,463.000000 
	C255.860397,470.800537 255.860397,478.101105 255.860397,485.734924 
	C253.660980,485.734924 251.745789,485.734924 249.209259,485.734924 
	C249.209259,467.090363 249.209259,448.367493 249.209259,429.347168 
	C250.928726,429.347168 252.854233,429.347168 255.854935,429.347168 
	C255.854935,440.360504 255.854935,451.430267 255.857666,463.000000 
z"/>
<path fill="#B84499" opacity="1.000000" stroke="none" 
	d="
M395.475067,111.679733 
	C396.715057,109.880753 398.129944,108.378563 399.772736,106.634377 
	C402.058105,109.195412 403.995117,111.366089 406.215729,113.854584 
	C409.871338,110.884460 413.292999,108.104424 416.979248,105.109390 
	C415.192871,102.703651 413.644592,100.618538 411.842560,98.191704 
	C413.512634,96.810905 415.112000,95.488579 417.013916,93.916092 
	C420.442596,98.188385 423.625244,102.154106 426.972504,106.324905 
	C421.427521,110.827293 416.163849,115.101265 410.702209,119.535988 
	C412.293335,121.706413 413.733856,123.671417 415.387360,125.926971 
	C413.742767,127.314354 412.253723,128.570526 410.277649,130.237564 
	C405.325775,124.055725 400.487854,118.016129 395.475067,111.679733 
z"/>
<path fill="#B84499" opacity="1.000000" stroke="none" 
	d="
M92.818352,103.216293 
	C95.136734,105.106918 97.183388,106.767258 99.667709,108.782661 
	C101.469818,106.782799 103.109108,104.963631 104.915901,102.958565 
	C106.509224,104.279663 108.007942,105.522324 109.904716,107.095032 
	C104.537880,113.419128 99.335579,119.549347 93.953064,125.891922 
	C92.143517,124.356316 90.659431,123.096893 88.899124,121.603065 
	C90.818535,119.143921 92.609047,116.849915 94.647507,114.238243 
	C91.108238,111.228790 87.735466,108.360893 84.089653,105.260841 
	C82.041641,107.410919 80.250771,109.291046 78.187744,111.456879 
	C76.574806,110.191132 75.043808,108.989685 73.023537,107.404289 
	C76.407776,103.380402 79.654633,99.519875 83.306732,95.177513 
	C86.559509,97.926392 89.553062,100.456200 92.818352,103.216293 
z"/>
<path fill="#B84499" opacity="1.000000" stroke="none" 
	d="
M102.869904,381.154968 
	C99.168915,383.930573 95.811272,386.810486 92.293648,389.827576 
	C94.274223,392.321564 95.892944,394.359924 97.729607,396.672699 
	C96.152374,398.063782 94.689629,399.353882 92.821060,401.001923 
	C89.385864,397.206573 85.988739,393.453247 82.323021,389.403229 
	C87.514214,384.603943 92.469490,380.022797 97.610886,375.269562 
	C95.913483,373.111786 94.416748,371.209106 92.721436,369.053986 
	C94.291313,367.579498 95.707794,366.249115 97.527374,364.540100 
	C103.092812,370.688232 108.482841,376.642578 114.084961,382.831207 
	C112.367752,384.399139 110.929176,385.712708 108.668320,387.777069 
	C106.788979,385.531586 105.001114,383.395447 102.869904,381.154968 
z"/>
<path fill="#B84499" opacity="1.000000" stroke="none" 
	d="
M390.036896,388.986511 
	C385.762390,393.143646 385.732208,387.392822 382.615997,386.866516 
	C388.607208,380.548523 394.036621,374.822998 400.273468,368.245941 
	C401.614838,370.152466 402.807495,371.847626 404.234924,373.876434 
	C402.668335,375.604584 400.811737,377.652618 398.733765,379.944855 
	C401.994080,383.290192 405.156616,386.535217 409.037964,390.517761 
	C410.819092,387.918121 412.328552,385.715057 414.428894,382.649506 
	C416.359558,385.440796 417.557861,387.173248 419.177460,389.514801 
	C415.909698,392.201904 412.080231,395.350922 407.779327,398.887634 
	C403.672394,395.052612 398.765137,390.470276 393.618958,385.664825 
	C392.398651,386.786163 391.339081,387.759766 390.036896,388.986511 
z"/>
<path fill="#B9489B" opacity="1.000000" stroke="none" 
	d="
M82.837280,400.752686 
	C79.526871,403.867188 76.510445,403.675110 74.127037,400.351898 
	C72.122177,397.556488 72.970963,394.616089 75.844818,393.181854 
	C77.408646,392.401459 80.827194,392.488342 81.551712,393.506226 
	C82.812683,395.277771 82.635689,398.072876 82.837280,400.752686 
z"/>
<path fill="#B84599" opacity="1.000000" stroke="none" 
	d="
M421.770844,400.329010 
	C421.326050,402.946320 421.253326,405.748871 419.834381,407.381256 
	C419.020752,408.317291 415.476318,408.060944 414.159088,407.046143 
	C412.838470,406.028809 411.975586,403.260803 412.290436,401.507599 
	C413.046967,397.294403 417.427399,396.727844 421.770844,400.329010 
z"/>
<path fill="#B84499" opacity="1.000000" stroke="none" 
	d="
M434.957153,102.049149 
	C431.819885,104.482811 428.797394,104.439438 427.038177,101.360420 
	C426.121704,99.756325 426.122986,96.323540 427.222504,95.208435 
	C428.539429,93.872864 431.913177,93.143478 433.609924,93.904526 
	C436.990631,95.420868 437.440948,98.582893 434.957153,102.049149 
z"/>
<path fill="#B9489B" opacity="1.000000" stroke="none" 
	d="
M73.442497,87.362396 
	C77.355942,87.077698 79.988800,88.777077 79.786194,92.239258 
	C79.673576,94.163773 77.576401,97.085236 75.878914,97.491821 
	C74.171036,97.900894 71.001503,96.270035 69.980911,94.607216 
	C68.085289,91.518768 70.004074,88.988014 73.442497,87.362396 
z"/>
<path fill="#FFFEFF" opacity="1.000000" stroke="none" 
	d="
M198.677673,458.721863 
	C198.826431,457.549103 198.975204,456.376373 199.290314,454.891724 
	C199.631409,454.713837 199.806152,454.847870 200.237045,455.194031 
	C200.242111,456.510773 199.991043,457.615417 199.358887,458.849609 
	C198.977814,458.979187 198.677673,458.721863 198.677673,458.721863 
z"/>
<path fill="#FFFEFF" opacity="1.000000" stroke="none" 
	d="
M199.129883,459.105499 
	C199.078705,460.130219 198.875488,461.028656 198.672272,461.927063 
	C198.480301,461.905670 198.288345,461.884308 198.096375,461.862915 
	C198.137619,461.001312 198.178879,460.139740 198.448898,459.000000 
	C198.677673,458.721863 198.977814,458.979187 199.129883,459.105499 
z"/>
<path fill="#FFFEFF" opacity="1.000000" stroke="none" 
	d="
M198.021011,464.050964 
	C197.861130,464.837250 197.695175,465.257904 197.529221,465.678558 
	C197.304443,465.533936 197.079666,465.389313 196.854874,465.244690 
	C197.241562,464.724884 197.628250,464.205078 198.021011,464.050964 
z"/>
<path fill="#FDFAFC" opacity="1.000000" stroke="none" 
	d="
M136.274918,69.759277 
	C132.773804,63.899258 133.302734,59.947617 137.606583,57.572746 
	C141.709213,55.308899 146.072662,56.851295 148.282608,61.389088 
	C149.906845,64.724251 149.725479,67.953423 146.760437,70.352730 
	C143.420609,73.055321 139.852768,73.284523 136.274918,69.759277 
z"/>
<path fill="#FCF7FB" opacity="1.000000" stroke="none" 
	d="
M420.229584,367.971771 
	C416.178741,365.548126 413.738220,362.665588 415.525269,358.012665 
	C417.036407,354.078094 421.035370,352.200500 424.738556,353.528870 
	C429.202972,355.130310 431.791748,359.279236 430.700775,363.084198 
	C429.428833,367.520081 425.745453,369.354431 420.229584,367.971771 
z"/>
<path fill="#FFFEFF" opacity="1.000000" stroke="none" 
	d="
M410.126038,359.880310 
	C410.430267,360.014893 410.544830,360.338226 410.659363,360.661560 
	C410.424103,360.700378 410.188843,360.739197 409.760315,360.617249 
	C409.690186,360.327362 409.813263,360.198212 410.126038,359.880310 
z"/>
<path fill="#FCF7FB" opacity="1.000000" stroke="none" 
	d="
M197.258942,27.801517 
	C196.867462,25.799620 196.570023,24.194061 196.280396,22.630644 
	C203.060165,19.574556 205.978424,20.857225 207.700180,27.600763 
	C208.478088,30.647556 209.243637,33.704975 209.822205,36.793640 
	C211.042725,43.309158 208.878983,45.746506 201.552338,45.882725 
	C200.166092,40.044769 198.759537,34.121311 197.258942,27.801517 
z"/>
<path fill="#FDFAFC" opacity="1.000000" stroke="none" 
	d="
M45.851852,190.458466 
	C49.915497,191.180725 53.541626,191.991058 54.226685,196.566589 
	C54.804893,200.428421 52.489044,203.611420 48.832893,204.163376 
	C44.188175,204.864578 39.621983,202.427536 38.831352,198.825409 
	C37.862228,194.410049 40.083546,191.596375 45.851852,190.458466 
z"/>
<path fill="#FDFAFC" opacity="1.000000" stroke="none" 
	d="
M242.232971,34.925079 
	C241.311050,40.629715 238.921555,42.735588 234.507538,42.159313 
	C230.532043,41.640289 228.306519,37.869534 228.888855,32.639473 
	C229.345001,28.542812 232.341507,26.073771 236.413239,26.635448 
	C240.953140,27.261709 242.159515,30.494385 242.232971,34.925079 
z"/>
<path fill="#FCF7FB" opacity="1.000000" stroke="none" 
	d="
M297.435669,46.674625 
	C296.388794,44.982956 295.142242,43.559765 295.050293,42.065533 
	C294.803558,38.055309 295.702942,33.875233 300.032288,32.793110 
	C302.234222,32.242722 305.761810,33.397362 307.420258,35.053150 
	C310.460083,38.088097 308.995270,41.985210 306.952850,45.171070 
	C304.635437,48.785923 301.297607,48.802414 297.435669,46.674625 
z"/>
<path fill="#FCF7FB" opacity="1.000000" stroke="none" 
	d="
M176.522903,446.747192 
	C172.775284,445.273499 170.807571,442.616638 171.973114,439.257538 
	C172.963242,436.403961 174.906815,433.412750 177.301224,431.708771 
	C178.533356,430.831940 182.859985,431.949249 183.675110,433.374268 
	C185.007019,435.702637 185.341614,439.173828 184.767654,441.881073 
	C183.978271,445.604401 181.043793,447.592896 176.522903,446.747192 
z"/>
<path fill="#FCF7FB" opacity="1.000000" stroke="none" 
	d="
M38.231186,226.307434 
	C38.092155,229.375259 37.973427,231.995605 37.854698,234.615967 
	C37.383244,234.818680 36.911793,235.021378 36.440338,235.224091 
	C35.555164,233.438568 33.928833,231.637360 33.966183,229.871338 
	C34.016644,227.485641 35.345753,225.126968 36.126221,222.756699 
	C36.717083,222.909531 37.307941,223.062347 37.898804,223.215179 
	C38.016365,224.096771 38.133926,224.978378 38.231186,226.307434 
z"/>
<path fill="#F8EEF5" opacity="1.000000" stroke="none" 
	d="
M318.480713,444.344604 
	C320.685577,443.669403 322.522766,443.138153 324.359955,442.606903 
	C324.714203,443.057465 325.068451,443.508057 325.422699,443.958649 
	C323.709351,445.514008 322.225952,447.775696 320.218933,448.429047 
	C318.149017,449.102875 315.569489,448.211273 313.212952,448.004578 
	C313.219513,447.464661 313.226074,446.924744 313.232635,446.384857 
	C314.859436,445.752747 316.486237,445.120667 318.480713,444.344604 
z"/>
<path fill="#F8EEF5" opacity="1.000000" stroke="none" 
	d="
M467.711090,234.242432 
	C466.886292,236.841354 466.013672,239.062500 465.141083,241.283630 
	C464.588470,241.119705 464.035889,240.955795 463.483276,240.791870 
	C463.483276,236.967178 463.483276,233.142471 463.483276,229.317780 
	C463.783875,229.084473 464.084473,228.851151 464.385071,228.617828 
	C465.477814,230.366760 466.570557,232.115707 467.711090,234.242432 
z"/>
<path fill="#F8EEF5" opacity="1.000000" stroke="none" 
	d="
M354.525391,428.523071 
	C356.648315,431.734192 353.639496,435.757019 349.107147,435.804779 
	C347.782684,435.818695 346.450958,435.145050 343.670135,434.394684 
	C348.018433,432.037140 351.108368,430.361847 354.525391,428.523071 
z"/>
<path fill="#F8EEF5" opacity="1.000000" stroke="none" 
	d="
M51.471687,330.116699 
	C51.300537,327.616882 51.300537,325.470978 51.300537,323.325073 
	C51.920132,323.218414 52.539726,323.111786 53.159321,323.005157 
	C54.833035,326.700806 56.506748,330.396454 58.180462,334.092102 
	C57.726578,334.496399 57.272694,334.900726 56.818810,335.305054 
	C55.093487,333.693573 53.368160,332.082123 51.471687,330.116699 
z"/>
<path fill="#F8EEF5" opacity="1.000000" stroke="none" 
	d="
M435.606689,132.133530 
	C440.980988,135.927505 441.656281,138.304291 438.592712,143.141800 
	C436.777130,139.944275 435.036102,137.019379 433.520416,133.982025 
	C433.374695,133.690018 434.630127,132.698853 435.606689,132.133530 
z"/>
</svg>