<svg version="1.1" id="Layer_1" xmlns="http://www.w3.org/2000/svg" xmlns:xlink="http://www.w3.org/1999/xlink" x="0px" y="0px"
	 width="100%" viewBox="0 0 496 496" enable-background="new 0 0 496 496" xml:space="preserve">
<path fill="#000000" opacity="1.000000" stroke="none" 
	d="
M294.000000,497.000000 
	C196.000031,497.000000 98.500046,497.000000 1.000052,497.000000 
	C1.000035,331.666718 1.000035,166.333466 1.000017,1.000141 
	C166.333237,1.000094 331.666473,1.000094 496.999756,1.000047 
	C496.999847,166.333191 496.999847,331.666382 496.999939,496.999786 
	C429.500000,497.000000 362.000000,497.000000 294.000000,497.000000 
M384.828491,184.014679 
	C384.613373,184.141113 384.398254,184.267548 384.183136,184.393982 
	C384.426270,184.623856 384.669403,184.853729 385.071869,185.598206 
	C385.371368,185.784988 385.670837,185.971771 385.969604,186.895294 
	C385.530457,187.289383 385.024170,187.630814 384.665405,188.087997 
	C383.794495,189.197708 382.992188,190.361267 382.162231,191.503128 
	C383.533508,191.670090 385.006927,192.239868 386.255676,191.923370 
	C389.208069,191.175079 391.990204,189.677277 394.961121,189.102554 
	C397.686646,188.575317 400.919922,188.428040 401.868225,192.107162 
	C402.841949,195.884888 401.136383,198.490677 397.509399,199.790283 
	C394.027313,201.037994 390.516174,202.204727 385.497314,203.929581 
	C387.937714,205.251678 389.530182,206.859665 390.639160,206.576187 
	C394.037933,205.707336 397.595551,204.612106 400.435699,202.653885 
	C403.056915,200.846588 406.255676,197.982422 406.582977,195.268173 
	C406.919495,192.477554 404.089355,189.305069 402.644928,186.299698 
	C401.717468,185.788651 402.353821,184.323151 401.881165,183.703140 
	C401.393250,183.063156 399.752563,182.907593 398.745483,183.128754 
	C395.147522,183.918945 391.604523,184.959061 388.251343,185.070099 
	C387.272278,184.765869 386.293243,184.461624 384.828491,184.014679 
M145.800385,123.973869 
	C147.187912,124.029175 148.575439,124.084480 150.210281,124.752563 
	C152.802032,127.665260 155.333054,130.636200 158.029785,133.448212 
	C158.674347,134.120316 159.854828,134.455032 160.823639,134.537903 
	C161.136597,134.564667 162.045074,132.891754 161.862274,132.669296 
	C158.655533,128.767212 155.321609,124.969627 151.274445,120.805321 
	C148.501068,120.829666 145.727676,120.854012 142.239136,120.945412 
	C141.781235,121.613510 141.323318,122.281609 140.247330,123.288956 
	C138.594513,125.356728 136.941711,127.424492 135.215408,129.584198 
	C137.265701,132.009964 139.477951,134.636185 141.700104,137.254013 
	C143.891327,139.835373 146.092545,142.408249 148.289383,144.984863 
	C148.812897,144.830276 149.336395,144.675690 149.859909,144.521103 
	C149.653961,142.919769 149.971985,140.944260 149.145111,139.786331 
	C146.530258,136.124512 143.487061,132.768600 140.860733,129.597641 
	C141.795242,127.715157 142.429428,126.437630 143.622299,124.963501 
	C144.073044,124.592575 144.523804,124.221642 145.800385,123.973869 
M250.701859,430.038574 
	C251.092041,429.985107 251.482208,429.931610 252.750153,429.723541 
	C252.750153,415.611053 252.750153,401.498596 252.750153,387.018250 
	C251.484482,387.135773 250.316635,387.244202 249.002441,387.366241 
	C249.002441,400.874664 248.980194,414.017639 249.050720,427.160126 
	C249.055618,428.070038 249.751053,428.976288 250.701859,430.038574 
M348.020355,383.012756 
	C348.020355,383.012756 348.040405,383.058655 348.669983,382.808594 
	C350.378906,381.005463 351.802551,378.711273 353.863495,377.514130 
	C356.964661,375.712769 357.330933,375.441681 355.216553,372.693512 
	C352.470978,369.124939 349.859589,365.441345 346.923279,362.037811 
	C345.906433,360.859192 344.091461,360.369171 342.641022,359.564636 
	C342.297791,360.010315 341.954590,360.455963 341.611389,360.901642 
	C342.452850,362.148560 343.447266,363.319855 344.107880,364.656189 
	C346.317291,369.125244 352.842804,372.469391 347.249420,379.233002 
	C342.763184,381.650177 340.618103,378.546967 338.154846,375.615417 
	C335.985840,373.034058 335.604553,367.782928 328.542816,369.797485 
	C332.703949,374.432770 336.233124,378.389832 339.792664,382.319336 
	C341.825775,384.563751 344.157349,385.539612 347.535736,383.881104 
	C347.712646,383.597961 347.889557,383.314819 348.020355,383.012756 
M106.221230,206.000900 
	C100.538116,205.181961 94.855011,204.363022 90.280350,203.703812 
	C89.204079,206.369339 88.089333,208.734253 87.303230,211.203781 
	C86.687752,213.137299 85.902931,215.293610 86.208923,217.186783 
	C86.867661,221.262543 93.041687,225.671768 98.075539,225.976593 
	C103.133034,226.282822 106.297890,223.587372 108.785110,218.682465 
	C108.464020,216.201920 108.142937,213.721390 107.821854,211.240845 
	C108.022820,211.408035 108.223778,211.575211 108.424744,211.742401 
	C111.004478,205.376282 113.584221,199.010162 116.387550,192.092270 
	C114.600426,192.092270 112.784264,191.668610 112.490814,192.157990 
	C109.643600,196.906326 105.983604,194.321732 103.207092,192.771667 
	C101.293167,191.703156 99.418213,188.872864 99.301750,186.733261 
	C99.175018,184.404907 101.310608,182.429916 104.500511,182.863373 
	C105.292458,182.970978 106.248184,181.873245 107.316231,181.213699 
	C102.244507,177.936874 98.512253,178.026901 96.622826,182.108932 
	C94.833405,185.974869 94.058083,190.325134 92.152115,194.248001 
	C91.857826,194.853714 93.116791,196.214111 93.880630,197.643005 
	C95.218277,196.013702 96.014130,195.044327 96.822006,194.060318 
	C99.045547,194.997147 101.281364,195.898010 103.483322,196.875137 
	C108.682518,199.182312 109.153465,200.439941 106.221230,206.000900 
M186.800446,385.656006 
	C185.865402,384.882721 184.185562,384.170135 184.116806,383.326263 
	C183.686630,378.047577 180.428650,375.268951 175.986099,373.486176 
	C170.731674,371.377594 165.185699,374.130554 165.424957,379.338196 
	C167.001053,378.750153 168.416000,377.770844 169.809158,377.800964 
	C172.329666,377.855438 175.193085,377.887756 177.264236,379.068176 
	C180.159958,380.718506 180.079956,384.094879 178.574814,386.676727 
	C176.825272,389.677887 173.905945,391.970306 170.226105,391.440002 
	C167.506332,391.048035 165.736603,389.081879 165.890259,385.778290 
	C165.939972,384.709534 164.734848,383.466766 163.857285,382.535950 
	C163.566788,382.227814 161.948898,382.509155 161.886597,382.758301 
	C161.551834,384.096680 161.026825,385.694000 161.466827,386.863617 
	C162.931732,390.757629 165.126663,394.395538 169.718719,394.911469 
	C174.735794,395.475189 179.610580,395.211304 182.279953,389.572266 
	C182.718536,388.645721 184.816086,388.504486 186.020493,388.828247 
	C185.904465,390.138672 185.989655,391.505951 185.638199,392.749847 
	C183.958267,398.695709 183.917618,398.682068 187.947037,401.999542 
	C188.045517,402.080627 187.965652,402.353699 188.054230,402.474915 
	C191.077194,406.611633 195.526031,406.779480 199.673859,405.636414 
	C204.203705,404.388062 207.250153,398.521637 206.980835,393.478699 
	C206.706253,388.337524 203.179291,385.042816 197.898590,385.016815 
	C195.309784,385.004089 192.674026,385.512665 191.368576,382.099762 
	C191.057343,381.286102 188.733337,381.242371 187.173630,380.798584 
	C187.173630,382.700348 187.173630,383.849854 186.800446,385.656006 
M224.923401,392.913208 
	C218.323273,389.805145 218.323273,389.805145 214.953293,395.748779 
	C213.975784,393.434204 212.947952,391.000488 211.920120,388.566772 
	C209.987518,390.146576 209.288742,391.276733 209.048523,392.497131 
	C207.644440,399.630432 206.392838,406.793762 204.987488,413.926819 
	C204.560532,416.093781 204.200851,418.453979 206.916595,418.806519 
	C209.156281,419.097290 212.030472,420.291779 213.167801,416.112335 
	C214.788895,410.155121 217.315231,404.444275 219.454895,398.628174 
	C219.867615,404.904083 219.417709,410.967194 219.017731,417.033600 
	C218.824829,419.959198 220.055222,421.709198 223.157928,422.003876 
	C226.501526,422.321411 227.350769,420.005463 227.954391,417.548981 
	C228.724472,414.415131 229.320068,411.237579 229.956177,408.071899 
	C230.656769,404.585297 231.583817,401.112244 231.868088,397.589386 
	C231.984985,396.140564 230.680817,394.577087 230.023056,393.065765 
	C229.017563,394.250092 227.819565,395.326233 227.072327,396.655670 
	C226.550064,397.584839 226.644333,398.860535 226.463226,399.981415 
	C225.971573,399.948761 225.479919,399.916077 224.988266,399.883423 
	C224.988266,397.852448 224.988266,395.821472 224.923401,392.913208 
M368.029175,330.838226 
	C367.504456,332.834320 366.979767,334.830444 366.362061,337.180450 
	C364.867035,336.182159 363.458801,335.241821 361.795135,334.130890 
	C364.251160,330.287872 366.655823,326.525238 369.068359,322.750275 
	C366.939148,321.383484 365.293610,319.859772 363.712189,323.470764 
	C362.506348,326.224091 360.389893,328.672821 358.320496,330.928558 
	C356.036346,333.418335 357.004608,335.112732 359.173218,336.638306 
	C366.146606,341.544006 373.174774,346.371796 380.031555,351.125458 
	C382.829071,348.070679 385.413574,345.494537 387.669556,342.657166 
	C388.504761,341.606750 388.811310,339.964600 388.939453,338.554199 
	C389.405334,333.426056 386.703064,329.603668 380.895782,326.984955 
	C375.913910,324.738403 371.666107,325.595398 368.029175,330.838226 
M183.012314,120.531158 
	C180.347183,115.921822 177.678238,111.314697 175.018082,106.702499 
	C172.584717,102.483536 172.325775,102.461617 168.760361,105.457985 
	C168.216690,105.914879 167.223602,105.993362 166.441315,105.984589 
	C161.407394,105.928200 158.461243,108.789833 157.104660,113.193390 
	C155.957825,116.916161 159.446640,123.740707 162.718430,126.015816 
	C167.196579,129.129807 171.304901,128.294022 175.199387,125.209938 
	C176.532257,124.154419 177.386734,122.494789 178.795761,120.677979 
	C179.770782,122.768646 180.558914,124.458626 181.331451,126.115128 
	C169.986633,132.410583 169.764175,132.685089 173.100540,135.921692 
	C175.415466,134.438080 177.656784,132.834976 180.048141,131.500793 
	C186.797958,127.734962 186.822235,127.778465 183.012314,120.531158 
M221.341446,106.129555 
	C222.890747,103.907333 225.955261,101.492050 225.701401,99.499596 
	C224.979401,93.833038 223.186798,88.234299 221.191620,82.839645 
	C220.579422,81.184380 218.005325,79.307747 216.239502,79.213058 
	C211.865540,78.978485 207.425446,79.604774 203.047760,80.165169 
	C202.285934,80.262695 201.407944,81.643295 201.132645,82.590805 
	C200.945038,83.236519 201.512085,84.373077 202.091293,84.919769 
	C203.933212,86.658310 208.760086,102.798615 207.945709,105.059616 
	C207.841736,105.348267 207.522720,105.572533 207.460251,105.860649 
	C207.255554,106.804695 206.669327,108.208847 207.067703,108.615784 
	C207.692184,109.253670 209.079498,109.600731 210.005096,109.407387 
	C213.635971,108.648949 217.212585,107.630714 221.341446,106.129555 
M330.018402,108.272331 
	C332.225586,111.248726 334.490448,114.184601 336.619629,117.215782 
	C338.037537,119.234375 340.776123,121.436455 337.487793,123.798225 
	C335.840179,124.981590 332.916290,126.231232 331.515625,125.538406 
	C328.427490,124.010872 325.852356,121.189369 327.099640,117.113289 
	C327.747955,114.994553 329.079742,112.571655 325.838745,112.318382 
	C324.689301,112.228554 322.482361,115.125465 322.161072,116.911285 
	C321.092468,122.850769 326.939453,129.367981 333.220215,129.999756 
	C337.908295,130.471329 341.119019,128.591782 343.050964,124.359795 
	C344.813629,120.498535 342.624512,117.990677 340.095764,115.564575 
	C338.658112,114.185303 336.703979,112.965111 336.039337,111.261040 
	C335.304871,109.378113 335.355377,106.886703 335.980652,104.957382 
	C336.171600,104.368225 339.479889,104.374496 341.202393,104.779976 
	C345.206848,105.722641 345.172974,108.922676 344.969971,112.246811 
	C344.896088,113.456589 345.640045,114.716316 346.010895,115.953247 
	C347.330994,114.924431 349.377106,114.148232 349.838989,112.820786 
	C351.402527,108.327538 345.859772,101.393219 339.993225,100.020958 
	C335.111206,98.878998 331.329193,101.706566 330.018402,108.272331 
M413.432678,295.051971 
	C412.777191,297.385345 411.847626,299.687866 411.579651,302.064911 
	C411.441895,303.287140 412.483582,304.642334 412.992310,305.937439 
	C413.991882,305.124207 415.556061,304.496063 415.893707,303.465881 
	C417.388885,298.904205 418.531708,294.227081 419.882629,289.297546 
	C410.441772,286.533722 400.946045,283.753845 390.844788,280.796692 
	C389.381897,285.639038 387.852295,290.186249 386.712097,294.829071 
	C386.416534,296.032684 387.339996,297.535675 387.703522,298.901154 
	C388.804047,298.021484 390.431213,297.360931 390.905579,296.220764 
	C392.290009,292.893005 393.214111,289.373718 394.322235,285.918274 
	C397.245087,286.931458 399.626434,287.756927 401.979370,288.572571 
	C399.260681,300.024017 399.260681,300.024017 401.918213,302.801666 
	C403.613800,298.260284 405.123291,294.217316 406.639038,290.170807 
	C412.032562,290.439850 412.858551,290.918457 413.432678,295.051971 
M373.857819,175.398392 
	C375.706055,183.721039 386.225922,185.876358 393.213684,178.393250 
	C397.305023,174.011856 397.116455,165.639923 391.753052,163.602310 
	C387.761871,162.086014 382.276428,162.197296 378.255280,163.708755 
	C374.170654,165.244110 372.109467,169.826019 373.857819,175.398392 
M102.572029,230.016861 
	C101.274765,229.966232 99.977493,229.915604 98.680229,229.864975 
	C98.871040,231.152695 98.659828,232.714279 99.319473,233.682617 
	C102.946182,239.006454 101.497528,243.280914 95.576447,245.166000 
	C95.833771,240.189636 96.098549,235.069000 96.411224,229.022186 
	C93.526237,229.193573 90.398170,228.610229 88.029160,229.690887 
	C83.934326,231.558792 81.422592,238.134766 83.183167,242.076004 
	C84.817451,245.734528 87.399673,248.911713 92.155197,249.009048 
	C99.488976,249.159149 102.805901,247.083008 105.120003,242.456833 
	C107.511101,237.676758 103.979744,234.532639 102.572029,230.016861 
M297.916168,389.032104 
	C299.071869,389.075195 300.394012,388.780487 301.340973,389.247192 
	C302.515930,389.826233 303.380280,391.035553 304.378784,391.972626 
	C303.361084,392.645111 302.425903,393.547852 301.310455,393.947784 
	C297.684937,395.247589 293.993469,396.363434 290.275635,397.566833 
	C290.261261,402.951447 294.146820,407.370148 299.506195,407.894836 
	C303.903412,408.325317 309.585999,403.360443 309.985352,398.739197 
	C310.628479,391.297699 306.864777,385.944794 300.321075,384.994110 
	C294.255066,384.112823 289.869843,387.666779 288.094147,395.902222 
	C290.179169,394.724335 291.657928,394.073120 292.917908,393.129730 
	C294.436584,391.992615 295.769531,390.607422 297.916168,389.032104 
M111.346443,305.951660 
	C112.230522,307.933990 113.391830,309.853668 113.861298,311.929749 
	C114.047318,312.752319 112.696632,313.922424 112.045624,314.934326 
	C111.144623,314.212891 109.938782,313.667023 109.402306,312.735596 
	C108.032356,310.357269 106.946304,307.813904 105.774132,305.323608 
	C104.676239,302.991150 102.849968,301.869202 100.859375,303.788422 
	C98.911247,305.666718 96.873138,308.001953 96.173447,310.500397 
	C95.021065,314.615295 96.730621,318.318207 100.393349,320.737213 
	C104.403053,323.385468 108.525803,322.816986 112.616623,320.764557 
	C116.749535,318.691040 119.475807,313.543365 118.372719,309.806946 
	C116.513092,303.507935 113.220375,301.010162 107.366127,301.457184 
	C105.748741,305.181396 108.675789,304.904602 111.346443,305.951660 
M401.931030,251.325287 
	C401.227081,250.527298 400.570465,249.680847 399.811188,248.939514 
	C396.136719,245.352081 397.739624,238.819458 402.997162,237.192017 
	C402.997162,240.912811 403.305023,244.574234 402.921753,248.161819 
	C402.403931,253.009018 405.572784,254.183456 408.560669,252.725739 
	C411.541840,251.271347 414.712524,248.207687 415.722687,245.160812 
	C417.403931,240.089737 413.026611,234.205673 408.036163,233.034897 
	C401.570343,231.517975 394.622253,235.112961 393.095215,240.765442 
	C391.544312,246.506470 396.600342,253.219788 401.931030,251.325287 
M316.722534,376.794159 
	C314.928345,378.581787 312.740967,380.141479 311.513885,382.257935 
	C310.941833,383.244598 312.230499,385.310120 312.675781,386.886627 
	C313.783905,385.866730 314.904449,384.859955 315.997284,383.823914 
	C317.671997,382.236115 319.087463,379.925171 321.066589,379.248993 
	C322.681763,378.697174 324.960815,380.088470 326.945526,380.618225 
	C326.940704,381.090454 326.935883,381.562683 326.931061,382.034943 
	C322.305573,384.590576 317.680084,387.146210 313.062256,389.697632 
	C315.966675,396.039215 319.866699,398.719910 324.204437,397.382599 
	C330.206238,395.532257 334.868103,390.379822 333.557617,386.224762 
	C331.386292,379.340637 329.653748,375.577393 321.286560,376.018097 
	C319.964844,376.087708 318.643097,376.155853 316.722534,376.794159 
M286.570709,86.992569 
	C281.896759,86.590530 279.634125,90.056778 278.140411,93.319000 
	C276.291809,97.356262 275.806305,101.860764 279.263763,105.756577 
	C282.712921,109.643036 286.849579,109.730835 291.079590,109.389656 
	C293.243896,109.876480 295.408234,110.363297 297.016571,110.725060 
	C297.253296,106.977791 297.194244,104.439850 297.625885,101.988319 
	C298.128052,99.136421 299.240997,96.389832 299.708405,93.535248 
	C299.874817,92.519020 299.193390,90.606346 298.442688,90.326393 
	C294.847931,88.985786 291.096680,88.064789 286.570709,86.992569 
M235.853287,104.984634 
	C238.910858,104.365990 241.968414,103.747353 245.025986,103.128708 
	C247.288055,103.844376 249.729980,105.665260 252.039795,102.034531 
	C245.960754,96.611893 251.211197,88.883301 247.730362,83.996284 
	C243.891327,83.645409 240.340042,83.265434 236.779114,83.032959 
	C235.848206,82.972191 234.848404,83.259377 233.947006,83.576515 
	C230.025970,84.956024 228.172668,87.815231 228.002167,91.927986 
	C227.763214,97.692490 228.867935,102.681114 235.853287,104.984634 
M141.846420,368.623749 
	C139.733566,375.858337 142.217896,379.231567 150.472900,380.430420 
	C149.434784,383.880676 142.398804,385.575043 147.560623,391.252258 
	C153.156998,384.331177 158.542725,377.584625 164.034943,370.925934 
	C165.903992,368.659912 165.860931,367.104523 162.756348,366.001282 
	C159.931351,369.065216 157.238068,372.379517 154.093628,375.188873 
	C152.953156,376.207825 150.527634,376.700195 149.048141,376.250183 
	C145.213135,375.083771 144.815231,370.528778 147.935074,366.684723 
	C149.984955,364.159058 152.044159,361.640991 154.099182,359.119507 
	C153.967392,358.608673 153.835587,358.097839 153.703781,357.587036 
	C152.130081,357.888062 149.970703,357.645630 149.092529,358.592041 
	C146.461380,361.427673 144.331055,364.727997 141.846420,368.623749 
M392.057922,212.776657 
	C391.565460,214.134781 391.017822,215.475830 390.590729,216.854202 
	C389.200623,221.340424 393.934601,228.673615 398.512390,228.882294 
	C399.600250,228.931854 400.735077,227.950516 401.848297,227.443359 
	C401.046936,226.864578 400.322754,226.083755 399.430542,225.742874 
	C396.028656,224.443176 394.829865,221.894669 394.998871,218.472290 
	C395.174683,214.911713 396.971924,212.662354 400.500488,212.021179 
	C403.853699,211.411865 407.240082,212.059647 408.548187,215.314682 
	C409.671661,218.110291 409.922729,221.575958 406.629578,223.784988 
	C406.045990,224.176453 405.442413,224.538177 404.497498,225.135117 
	C405.976746,226.384628 407.061981,227.301331 409.475677,229.340164 
	C410.965729,224.871597 413.631836,221.057770 413.077789,217.789948 
	C411.037598,205.757263 398.765472,205.544144 392.057922,212.776657 
M347.904938,138.292236 
	C346.131683,134.486099 346.329376,130.723038 349.690704,128.156952 
	C351.306549,126.923386 354.305237,126.308792 356.214203,126.903015 
	C360.038544,128.093475 361.895630,130.958710 360.151245,135.300644 
	C359.923401,135.867767 361.219482,137.047104 361.809692,137.942871 
	C362.733154,137.277237 364.420197,136.636703 364.443054,135.941467 
	C364.525726,133.426132 364.725403,130.546265 363.645233,128.436646 
	C361.285767,123.828453 355.208801,121.782043 349.919769,123.065536 
	C346.297028,123.944664 342.278870,129.178619 342.010651,133.367783 
	C341.744080,137.531342 345.109619,142.250427 349.810150,144.304016 
	C354.303406,146.267075 358.192596,144.535172 358.778534,140.315018 
	C355.521790,138.446609 351.304169,143.683716 347.904938,138.292236 
M112.075188,336.157013 
	C111.228081,332.830597 113.213860,330.837463 115.549896,329.150696 
	C117.634895,327.645233 119.993584,326.508179 122.018051,324.934052 
	C123.020752,324.154388 123.543175,322.757050 124.282906,321.639191 
	C117.577637,321.932892 113.375755,325.669495 109.091599,329.371643 
	C106.479820,331.628632 106.359291,334.046875 107.926155,336.785156 
	C109.417114,339.390808 111.025551,341.929291 112.582329,344.497284 
	C112.782555,344.046295 112.982788,343.595306 113.183014,343.144318 
	C113.880890,344.490662 114.578773,345.837006 115.299133,347.226746 
	C120.775688,343.855469 125.762657,340.906281 130.583237,337.706390 
	C131.446609,337.133301 131.622208,335.524048 132.115356,334.393188 
	C130.819901,334.246399 129.292679,333.592682 128.276703,334.057190 
	C126.090866,335.056580 124.308258,336.963715 122.104851,337.892761 
	C118.842400,339.268280 115.109261,342.310455 112.075188,336.157013 
M264.468201,100.892731 
	C264.689301,96.280281 264.910370,91.667824 265.131470,87.055382 
	C268.068695,87.442490 270.397247,87.749374 272.781036,88.063538 
	C272.781036,86.387840 272.781036,85.315895 272.781036,83.874092 
	C270.463074,83.874092 268.383789,83.874092 266.350372,83.874092 
	C265.589172,75.959343 265.589172,75.959343 262.335938,75.027504 
	C261.726807,77.317513 261.118195,79.605545 260.741821,81.020531 
	C257.912537,82.191307 255.706360,83.104240 253.500198,84.017166 
	C253.658096,84.530518 253.816010,85.043861 253.973923,85.557205 
	C256.225525,86.209267 258.477142,86.861328 259.775085,87.237206 
	C259.775085,91.279060 260.440735,95.032326 259.582886,98.397186 
	C258.768494,101.591621 259.391449,103.683983 262.101898,104.446564 
	C265.097107,105.289284 268.659119,106.282112 271.520813,102.491898 
	C268.916351,102.097397 266.995514,101.806442 264.468201,100.892731 
M278.022675,404.423615 
	C278.177216,407.137787 277.617554,409.787476 274.447845,409.804749 
	C272.650269,409.814575 270.844177,408.266144 269.041931,407.419525 
	C269.175293,406.939209 269.308655,406.458893 269.442017,405.978577 
	C268.007263,406.050690 266.572479,406.122803 265.099365,406.196838 
	C266.021667,410.978394 270.205475,415.185822 273.662476,413.740875 
	C277.738434,412.037140 281.704987,411.870544 285.848724,411.602936 
	C286.616455,411.553406 287.330536,410.673401 288.865967,409.641144 
	C286.603851,408.714722 285.070709,408.086884 282.996643,407.237488 
	C284.286011,402.685303 276.804108,396.458923 285.660461,392.637207 
	C283.659424,388.997345 281.818573,389.033844 270.628693,394.195374 
	C272.545380,394.882751 274.462036,395.570160 276.617859,396.343292 
	C277.040070,398.515381 277.531067,401.041168 278.022675,404.423615 
M395.674927,325.813446 
	C398.290771,322.933197 402.566925,320.779022 400.320282,316.152557 
	C401.503937,314.653625 402.525146,313.360413 403.546356,312.067230 
	C402.004883,311.366974 400.442017,310.709778 398.926178,309.957825 
	C395.304993,308.161469 390.996307,307.029907 388.281250,304.314240 
	C385.036255,301.068512 384.377716,302.990723 382.586914,305.690674 
	C386.330353,307.574829 389.846771,309.168671 393.187958,311.070435 
	C397.471130,313.508301 398.513306,317.863098 395.046997,320.133453 
	C393.184296,321.353485 389.984680,321.155060 387.542603,320.723480 
	C383.780334,320.058472 380.844177,315.613770 375.136017,318.426605 
	C381.784119,322.542877 387.495697,326.269775 395.674927,325.813446 
M80.150383,270.380646 
	C78.787109,270.751770 77.423836,271.122864 76.060555,271.493958 
	C75.888702,271.975952 75.716843,272.457947 75.544991,272.939941 
	C77.118614,273.626495 78.730949,274.975922 80.259254,274.886658 
	C87.438431,274.467224 94.608810,273.767792 101.746719,272.881500 
	C103.169067,272.704865 104.909164,271.573608 105.677002,270.360077 
	C107.354019,267.709717 104.683228,254.975143 101.404678,251.548813 
	C100.973289,254.145508 100.423729,256.007904 100.411827,257.873718 
	C100.395187,260.482391 101.149788,263.139954 100.831383,265.683594 
	C100.679237,266.898956 98.914597,268.714111 97.711708,268.859100 
	C92.167793,269.527435 86.564507,269.703339 80.150383,270.380646 
M116.404663,175.050400 
	C114.768578,174.037445 112.255554,173.369171 111.691780,171.934769 
	C110.726913,169.479813 110.436775,166.415558 111.038368,163.886719 
	C111.233383,163.066956 115.349251,162.353134 117.242958,162.950317 
	C120.398499,163.945419 123.169601,166.114410 126.187157,167.619522 
	C127.103378,168.076538 128.298279,167.974823 129.365540,168.129013 
	C128.933350,166.936081 128.855515,165.185806 128.007629,164.646729 
	C124.344902,162.318054 120.597481,160.010910 116.613922,158.327759 
	C111.967209,156.364410 106.999756,159.722092 105.946266,164.753403 
	C105.535233,166.716415 104.436264,168.535400 103.295387,171.272186 
	C107.218132,173.624100 111.687744,176.455933 116.317017,178.996902 
	C117.934296,179.884598 119.945053,180.055420 121.776123,180.553635 
	C120.473846,179.025421 119.182602,177.487518 117.857529,175.979340 
	C117.656494,175.750534 117.298355,175.659775 116.404663,175.050400 
M366.798920,358.973999 
	C365.344574,357.635223 364.000122,356.146118 362.414459,354.987000 
	C358.340942,352.009338 358.024170,349.143799 362.338806,346.151917 
	C362.565277,345.994904 362.664673,345.654663 362.889465,345.293304 
	C361.934906,344.461334 360.975037,343.624756 360.302734,343.038788 
	C356.342743,347.358368 352.634277,351.403595 348.602417,355.801575 
	C348.656708,355.865021 349.536896,356.893921 350.428314,357.935944 
	C355.510895,353.116241 355.520203,353.106781 360.192780,357.701996 
	C362.201447,359.677460 363.914001,362.098633 366.239258,363.552643 
	C367.611481,364.410706 370.544830,364.532959 371.655426,363.621155 
	C373.183807,362.366241 373.652100,359.820251 374.712189,357.530151 
	C371.698914,352.831055 370.073456,359.174988 366.798920,358.973999 
M128.501328,363.006012 
	C129.686188,364.075287 130.871033,365.144562 132.055893,366.213867 
	C132.517578,366.023346 132.979263,365.832825 133.440948,365.642303 
	C133.166229,364.465149 133.280319,362.868591 132.545670,362.187469 
	C130.105652,359.925232 130.866486,358.248962 133.002731,356.503601 
	C135.530930,354.438049 138.036545,352.344818 140.620728,350.206696 
	C142.159775,351.679749 143.810760,353.259949 145.210022,354.599213 
	C146.248550,353.921509 147.177780,353.315155 148.710678,352.314850 
	C142.324753,349.329529 141.206131,341.475403 133.133392,339.608307 
	C134.845245,342.990082 135.962952,345.198151 137.080673,347.406189 
	C136.568405,347.035095 136.056137,346.664032 135.543869,346.292938 
	C132.060791,350.606995 128.577698,354.921082 124.509377,359.959991 
	C125.594551,360.752594 126.794762,361.629211 128.501328,363.006012 
M191.953003,102.593628 
	C189.614548,96.605652 187.389557,90.569160 184.863586,84.661354 
	C184.169922,83.038963 182.575836,81.801552 181.394928,80.387482 
	C180.137253,82.103241 179.756165,83.195427 180.083954,83.998184 
	C184.902634,95.799423 189.781158,107.576881 194.786011,119.299980 
	C195.110184,120.059280 196.579193,120.329826 197.515656,120.827728 
	C197.685760,119.760048 198.288223,118.527321 197.954117,117.652107 
	C196.119202,112.845299 194.054932,108.126030 191.953003,102.593628 
M369.504089,154.962006 
	C373.108734,152.229904 376.713409,149.497787 380.263000,146.807404 
	C374.879211,138.013641 374.243988,137.654343 371.482239,140.775116 
	C372.302521,142.879044 374.129913,145.758957 373.547852,146.379684 
	C370.726715,149.388351 367.259003,151.790756 364.627563,153.917297 
	C361.939941,152.106430 359.925140,150.748886 357.022644,148.793243 
	C357.950531,155.720245 366.334686,164.063095 369.727234,162.642609 
	C368.543304,160.361252 365.171600,158.226486 369.504089,154.962006 
M143.493134,149.999207 
	C145.568710,148.115952 144.610336,146.787170 142.433701,147.175552 
	C140.568207,147.508423 138.946838,149.209274 137.102951,150.377716 
	C135.017105,148.767014 132.548569,146.917908 130.141891,144.991501 
	C123.178284,139.417511 123.188049,139.405319 117.986977,147.283630 
	C118.802574,148.142838 119.647041,149.032440 120.533531,149.966324 
	C121.904861,148.191635 123.089287,146.658813 124.346481,145.031815 
	C127.721748,147.912506 130.940399,150.659531 133.346115,152.712738 
	C134.852203,156.208786 128.545776,158.091064 133.290131,161.382584 
	C136.694183,157.600357 139.867432,154.074570 143.493134,149.999207 
M118.982170,365.545441 
	C120.725471,365.784698 122.468781,366.023956 124.212090,366.263214 
	C124.244606,365.086945 124.762421,363.494293 124.194901,362.832855 
	C123.361961,361.862091 121.324135,360.758148 120.576981,361.159180 
	C119.504250,361.734955 119.131256,363.614349 118.982170,365.545441 
M389.008911,184.492645 
	C389.239044,184.567413 389.469177,184.642181 389.699310,184.716949 
	C389.624054,184.496368 389.548767,184.275803 389.008911,184.492645 
z"/>
<path fill="#72DED3" opacity="1.000000" stroke="none" 
	d="
M224.955841,393.351868 
	C224.988266,395.821472 224.988266,397.852448 224.988266,399.883423 
	C225.479919,399.916077 225.971573,399.948761 226.463226,399.981415 
	C226.644333,398.860535 226.550064,397.584839 227.072327,396.655670 
	C227.819565,395.326233 229.017563,394.250092 230.023041,393.065765 
	C230.680817,394.577087 231.984985,396.140564 231.868088,397.589386 
	C231.583817,401.112244 230.656769,404.585297 229.956177,408.071899 
	C229.320068,411.237579 228.724472,414.415131 227.954391,417.548981 
	C227.350769,420.005463 226.501526,422.321411 223.157928,422.003876 
	C220.055222,421.709198 218.824829,419.959198 219.017731,417.033600 
	C219.417709,410.967194 219.867615,404.904083 219.454895,398.628174 
	C217.315231,404.444275 214.788895,410.155121 213.167801,416.112335 
	C212.030472,420.291779 209.156281,419.097290 206.916595,418.806519 
	C204.200851,418.453979 204.560532,416.093781 204.987488,413.926819 
	C206.392838,406.793762 207.644440,399.630432 209.048523,392.497131 
	C209.288742,391.276733 209.987518,390.146576 211.920120,388.566772 
	C212.947952,391.000488 213.975784,393.434204 214.953293,395.748779 
	C218.323273,389.805145 218.323273,389.805145 224.955841,393.351868 
z"/>
<path fill="#72DDD1" opacity="1.000000" stroke="none" 
	d="
M368.196136,330.483643 
	C371.666107,325.595398 375.913910,324.738403 380.895782,326.984955 
	C386.703064,329.603668 389.405334,333.426056 388.939453,338.554199 
	C388.811310,339.964600 388.504761,341.606750 387.669556,342.657166 
	C385.413574,345.494537 382.829071,348.070679 380.031555,351.125458 
	C373.174774,346.371796 366.146606,341.544006 359.173218,336.638306 
	C357.004608,335.112732 356.036346,333.418335 358.320496,330.928558 
	C360.389893,328.672821 362.506348,326.224091 363.712189,323.470764 
	C365.293610,319.859772 366.939148,321.383484 369.068359,322.750275 
	C366.655823,326.525238 364.251160,330.287872 361.795135,334.130890 
	C363.458801,335.241821 364.867035,336.182159 366.362061,337.180450 
	C366.979767,334.830444 367.504456,332.834320 368.196136,330.483643 
M379.025482,330.018005 
	C374.440186,329.268616 371.808258,331.342712 371.011505,335.770172 
	C370.201141,340.273071 373.160278,342.708282 376.694580,343.734619 
	C380.590454,344.865936 383.340424,342.221497 384.578766,338.763519 
	C386.134766,334.418304 382.953796,332.231567 379.025482,330.018005 
z"/>
<path fill="#72DDD1" opacity="1.000000" stroke="none" 
	d="
M183.275757,120.803284 
	C186.822235,127.778465 186.797958,127.734962 180.048141,131.500793 
	C177.656784,132.834976 175.415466,134.438080 173.100540,135.921692 
	C169.764175,132.685089 169.986633,132.410583 181.331451,126.115128 
	C180.558914,124.458626 179.770782,122.768646 178.795761,120.677979 
	C177.386734,122.494789 176.532257,124.154419 175.199387,125.209938 
	C171.304901,128.294022 167.196579,129.129807 162.718430,126.015816 
	C159.446640,123.740707 155.957825,116.916161 157.104660,113.193390 
	C158.461243,108.789833 161.407394,105.928200 166.441315,105.984589 
	C167.223602,105.993362 168.216690,105.914879 168.760361,105.457985 
	C172.325775,102.461617 172.584717,102.483536 175.018082,106.702499 
	C177.678238,111.314697 180.347183,115.921822 183.275757,120.803284 
M174.684235,114.166801 
	C172.822647,110.859818 170.596954,108.009155 166.212860,109.392204 
	C162.442566,110.581612 160.852646,113.667610 162.188080,117.108879 
	C163.197815,119.710793 165.336426,122.997154 167.661819,123.700562 
	C171.074753,124.732933 173.551025,121.644287 174.779068,118.361244 
	C175.163742,117.332787 174.923279,116.070465 174.684235,114.166801 
z"/>
<path fill="#70DDD2" opacity="1.000000" stroke="none" 
	d="
M221.075394,106.419266 
	C217.212585,107.630714 213.635971,108.648949 210.005096,109.407387 
	C209.079498,109.600731 207.692184,109.253670 207.067703,108.615784 
	C206.669327,108.208847 207.255554,106.804695 207.460251,105.860649 
	C207.522720,105.572533 207.841736,105.348267 207.945709,105.059616 
	C208.760086,102.798615 203.933212,86.658310 202.091293,84.919769 
	C201.512085,84.373077 200.945038,83.236519 201.132645,82.590805 
	C201.407944,81.643295 202.285934,80.262695 203.047760,80.165169 
	C207.425446,79.604774 211.865540,78.978485 216.239502,79.213058 
	C218.005325,79.307747 220.579422,81.184380 221.191620,82.839645 
	C223.186798,88.234299 224.979401,93.833038 225.701401,99.499596 
	C225.955261,101.492050 222.890747,103.907333 221.075394,106.419266 
M212.026947,100.353203 
	C212.419495,101.828781 212.812042,103.304359 213.208344,104.794029 
	C222.134659,101.887871 222.356476,101.219276 218.988892,88.322540 
	C217.448502,82.423340 216.458557,81.986832 208.017166,83.586449 
	C209.344009,88.907082 210.668564,94.218605 212.026947,100.353203 
z"/>
<path fill="#72DED3" opacity="1.000000" stroke="none" 
	d="
M330.018494,107.875359 
	C331.329193,101.706566 335.111206,98.878998 339.993225,100.020958 
	C345.859772,101.393219 351.402527,108.327538 349.838989,112.820786 
	C349.377106,114.148232 347.330994,114.924431 346.010895,115.953247 
	C345.640045,114.716316 344.896088,113.456589 344.969971,112.246811 
	C345.172974,108.922676 345.206848,105.722641 341.202393,104.779976 
	C339.479889,104.374496 336.171600,104.368225 335.980652,104.957382 
	C335.355377,106.886703 335.304871,109.378113 336.039337,111.261040 
	C336.703979,112.965111 338.658112,114.185303 340.095764,115.564575 
	C342.624512,117.990677 344.813629,120.498535 343.050964,124.359795 
	C341.119019,128.591782 337.908295,130.471329 333.220215,129.999756 
	C326.939453,129.367981 321.092468,122.850769 322.161072,116.911285 
	C322.482361,115.125465 324.689301,112.228554 325.838745,112.318382 
	C329.079742,112.571655 327.747955,114.994553 327.099640,117.113289 
	C325.852356,121.189369 328.427490,124.010872 331.515625,125.538406 
	C332.916290,126.231232 335.840179,124.981590 337.487793,123.798225 
	C340.776123,121.436455 338.037537,119.234375 336.619629,117.215782 
	C334.490448,114.184601 332.225586,111.248726 330.018494,107.875359 
z"/>
<path fill="#70DDD2" opacity="1.000000" stroke="none" 
	d="
M413.678772,294.722168 
	C412.858551,290.918457 412.032562,290.439850 406.635925,290.172607 
	C405.123291,294.217316 403.613800,298.260284 401.918213,302.801666 
	C399.260681,300.024017 399.260681,300.024017 401.979370,288.572571 
	C399.626434,287.756927 397.245087,286.931458 394.322235,285.918274 
	C393.214111,289.373718 392.290009,292.893005 390.905579,296.220764 
	C390.431213,297.360931 388.804047,298.021484 387.703522,298.901154 
	C387.339996,297.535675 386.416534,296.032684 386.712097,294.829071 
	C387.852295,290.186249 389.381897,285.639038 390.844788,280.796692 
	C400.946045,283.753845 410.441772,286.533722 419.882629,289.297546 
	C418.531708,294.227081 417.388885,298.904205 415.893707,303.465881 
	C415.556061,304.496063 413.991882,305.124207 412.992310,305.937439 
	C412.483582,304.642334 411.441895,303.287140 411.579651,302.064911 
	C411.847626,299.687866 412.777191,297.385345 413.678772,294.722168 
z"/>
<path fill="#72DDD1" opacity="1.000000" stroke="none" 
	d="
M373.578674,175.110443 
	C372.109467,169.826019 374.170654,165.244110 378.255280,163.708755 
	C382.276428,162.197296 387.761871,162.086014 391.753052,163.602310 
	C397.116455,165.639923 397.305023,174.011856 393.213684,178.393250 
	C386.225922,185.876358 375.706055,183.721039 373.578674,175.110443 
M379.390717,177.817810 
	C381.199402,178.100754 383.008057,178.383682 386.160675,178.876862 
	C384.027435,174.679489 382.292542,171.265945 380.324219,167.393097 
	C376.677979,170.788300 377.905670,173.953445 379.390717,177.817810 
M389.477844,167.014999 
	C388.177338,166.287338 386.876831,165.559677 385.576324,164.832016 
	C385.267517,165.202499 384.958710,165.572983 384.649902,165.943466 
	C386.029053,168.640991 387.408203,171.338531 388.765320,173.992996 
	C393.991211,172.510162 391.553467,169.978836 389.477844,167.014999 
z"/>
<path fill="#70DED0" opacity="1.000000" stroke="none" 
	d="
M102.786270,230.348175 
	C103.979744,234.532639 107.511101,237.676758 105.120003,242.456833 
	C102.805901,247.083008 99.488976,249.159149 92.155197,249.009048 
	C87.399673,248.911713 84.817451,245.734528 83.183167,242.076004 
	C81.422592,238.134766 83.934326,231.558792 88.029160,229.690887 
	C90.398170,228.610229 93.526237,229.193573 96.411224,229.022186 
	C96.098549,235.069000 95.833771,240.189636 95.576447,245.166000 
	C101.497528,243.280914 102.946182,239.006454 99.319473,233.682617 
	C98.659828,232.714279 98.871040,231.152695 98.680229,229.864975 
	C99.977493,229.915604 101.274765,229.966232 102.786270,230.348175 
M86.996040,240.197220 
	C87.976044,241.541702 88.956039,242.886200 90.643784,245.201645 
	C91.272919,240.119461 91.699966,236.669769 92.203117,232.605301 
	C87.653534,233.614899 86.926537,236.215622 86.996040,240.197220 
z"/>
<path fill="#70DDD2" opacity="1.000000" stroke="none" 
	d="
M297.549500,389.180847 
	C295.769531,390.607422 294.436584,391.992615 292.917908,393.129730 
	C291.657928,394.073120 290.179169,394.724335 288.094147,395.902222 
	C289.869843,387.666779 294.255066,384.112823 300.321075,384.994110 
	C306.864777,385.944794 310.628479,391.297699 309.985352,398.739197 
	C309.585999,403.360443 303.903412,408.325317 299.506195,407.894836 
	C294.146820,407.370148 290.261261,402.951447 290.275635,397.566833 
	C293.993469,396.363434 297.684937,395.247589 301.310455,393.947784 
	C302.425903,393.547852 303.361084,392.645111 304.378784,391.972626 
	C303.380280,391.035553 302.515930,389.826233 301.340973,389.247192 
	C300.394012,388.780487 299.071869,389.075195 297.549500,389.180847 
M304.471893,401.014435 
	C305.053558,399.878326 305.635254,398.742218 306.216949,397.606140 
	C305.919983,397.316406 305.623016,397.026672 305.326050,396.736969 
	C302.192841,397.995178 299.059631,399.253387 295.384094,400.729370 
	C298.481018,403.841644 301.112946,403.780548 304.471893,401.014435 
z"/>
<path fill="#72DDD1" opacity="1.000000" stroke="none" 
	d="
M111.067444,305.648254 
	C108.675789,304.904602 105.748741,305.181396 107.366005,301.457275 
	C113.220375,301.010162 116.513092,303.507935 118.372719,309.806946 
	C119.475807,313.543365 116.749535,318.691040 112.616623,320.764557 
	C108.525803,322.816986 104.403053,323.385468 100.393349,320.737213 
	C96.730621,318.318207 95.021065,314.615295 96.173447,310.500397 
	C96.873138,308.001953 98.911247,305.666718 100.859375,303.788422 
	C102.849968,301.869202 104.676239,302.991150 105.774132,305.323608 
	C106.946304,307.813904 108.032356,310.357269 109.402306,312.735596 
	C109.938782,313.667023 111.144623,314.212891 112.045624,314.934326 
	C112.696632,313.922424 114.047318,312.752319 113.861298,311.929749 
	C113.391830,309.853668 112.230522,307.933990 111.067444,305.648254 
M103.716278,310.004944 
	C102.851219,309.460663 101.986153,308.916412 101.023094,308.310455 
	C99.065720,314.815857 101.157684,317.832123 107.235374,317.213715 
	C106.234062,314.867188 105.280952,312.633636 103.716278,310.004944 
z"/>
<path fill="#70DED0" opacity="1.000000" stroke="none" 
	d="
M401.729797,251.644165 
	C396.600342,253.219788 391.544312,246.506470 393.095215,240.765442 
	C394.622253,235.112961 401.570343,231.517975 408.036163,233.034897 
	C413.026611,234.205673 417.403931,240.089737 415.722687,245.160812 
	C414.712524,248.207687 411.541840,251.271347 408.560669,252.725739 
	C405.572784,254.183456 402.403931,253.009018 402.921753,248.161819 
	C403.305023,244.574234 402.997162,240.912811 402.997162,237.192017 
	C397.739624,238.819458 396.136719,245.352081 399.811188,248.939514 
	C400.570465,249.680847 401.227081,250.527298 401.729797,251.644165 
M411.334259,241.790024 
	C410.259308,240.008072 409.184357,238.226120 407.601562,235.602341 
	C407.601562,241.040100 407.601562,244.939911 407.601562,248.839722 
	C408.192993,248.950897 408.784424,249.062073 409.375824,249.173248 
	C410.163605,246.897873 410.951355,244.622482 411.334259,241.790024 
z"/>
<path fill="#72DED2" opacity="1.000000" stroke="none" 
	d="
M317.021942,376.509399 
	C318.643097,376.155853 319.964844,376.087708 321.286560,376.018097 
	C329.653748,375.577393 331.386292,379.340637 333.557617,386.224762 
	C334.868103,390.379822 330.206238,395.532257 324.204437,397.382599 
	C319.866699,398.719910 315.966675,396.039215 313.062256,389.697632 
	C317.680084,387.146210 322.305573,384.590576 326.931061,382.034943 
	C326.935883,381.562683 326.940704,381.090454 326.945526,380.618225 
	C324.960815,380.088470 322.681763,378.697174 321.066589,379.248993 
	C319.087463,379.925171 317.671997,382.236115 315.997284,383.823914 
	C314.904449,384.859955 313.783905,385.866730 312.675781,386.886627 
	C312.230499,385.310120 310.941833,383.244598 311.513885,382.257935 
	C312.740967,380.141479 314.928345,378.581787 317.021942,376.509399 
M323.098083,388.436188 
	C321.800262,389.486115 320.502441,390.536041 319.204620,391.585938 
	C319.303650,392.043854 319.402679,392.501770 319.501709,392.959717 
	C321.716003,392.750610 324.315674,393.182343 326.034210,392.148926 
	C327.691254,391.152374 328.438599,388.643066 329.585602,386.798370 
	C329.207214,386.507843 328.828827,386.217285 328.450439,385.926758 
	C326.879791,386.629395 325.309143,387.332001 323.098083,388.436188 
z"/>
<path fill="#72DED2" opacity="1.000000" stroke="none" 
	d="
M187.173630,384.999359 
	C187.173630,383.849854 187.173630,382.700348 187.173630,380.798584 
	C188.733337,381.242371 191.057343,381.286102 191.368576,382.099762 
	C192.674026,385.512665 195.309784,385.004089 197.898590,385.016815 
	C203.179291,385.042816 206.706253,388.337524 206.980835,393.478699 
	C207.250153,398.521637 204.203705,404.388062 199.673859,405.636414 
	C195.526031,406.779480 191.077194,406.611633 188.054230,402.474915 
	C187.965652,402.353699 188.045517,402.080627 187.947037,401.999542 
	C183.917618,398.682068 183.958267,398.695709 185.638199,392.749847 
	C185.989655,391.505951 185.904465,390.138672 186.435669,388.408142 
	C187.768188,387.318756 188.685532,386.649536 189.602890,385.980286 
	C188.793137,385.653320 187.983383,385.326324 187.173630,384.999359 
M201.996994,395.172333 
	C201.995300,394.678101 201.910309,394.167175 202.005325,393.692291 
	C202.665634,390.391876 200.645035,388.177277 198.030441,388.272278 
	C195.601089,388.360535 192.570099,389.870178 191.009995,391.753204 
	C188.576874,394.689911 189.393250,398.572021 192.188248,400.866882 
	C193.508194,401.950592 196.758163,401.701813 198.572021,400.854492 
	C200.116760,400.132874 200.856857,397.688751 201.996994,395.172333 
z"/>
<path fill="#70DED0" opacity="1.000000" stroke="none" 
	d="
M286.985901,86.993622 
	C291.096680,88.064789 294.847931,88.985786 298.442688,90.326393 
	C299.193390,90.606346 299.874817,92.519020 299.708405,93.535248 
	C299.240997,96.389832 298.128052,99.136421 297.625885,101.988319 
	C297.194244,104.439850 297.253296,106.977791 297.016571,110.725060 
	C295.408234,110.363297 293.243896,109.876480 291.079590,109.389656 
	C286.849579,109.730835 282.712921,109.643036 279.263763,105.756577 
	C275.806305,101.860764 276.291809,97.356262 278.140411,93.319000 
	C279.634125,90.056778 281.896759,86.590530 286.985901,86.993622 
M284.457825,105.042236 
	C287.743011,107.655891 289.689270,105.128937 291.403870,102.974869 
	C293.428101,100.431755 295.475983,97.379173 292.910034,94.278946 
	C291.586426,92.679718 289.020020,91.146439 287.121582,91.266464 
	C285.354401,91.378181 283.056366,93.390427 282.184998,95.155090 
	C280.548676,98.468956 281.152771,101.978210 284.457825,105.042236 
z"/>
<path fill="#72DDCF" opacity="1.000000" stroke="none" 
	d="
M235.442993,104.977097 
	C228.867935,102.681114 227.763214,97.692490 228.002167,91.927986 
	C228.172668,87.815231 230.025970,84.956024 233.947006,83.576515 
	C234.848404,83.259377 235.848206,82.972191 236.779114,83.032959 
	C240.340042,83.265434 243.891327,83.645409 247.730362,83.996284 
	C251.211197,88.883301 245.960754,96.611893 252.039795,102.034531 
	C249.729980,105.665260 247.288055,103.844376 245.025986,103.128708 
	C241.968414,103.747353 238.910858,104.365990 235.442993,104.977097 
M242.963013,88.839600 
	C242.312729,88.414619 241.625778,88.036057 241.018555,87.556564 
	C238.509323,85.575180 236.352829,86.197571 234.233170,88.271912 
	C231.106781,91.331398 231.570206,95.016235 233.296829,98.165016 
	C234.128998,99.682594 237.000397,100.867233 238.930237,100.841492 
	C243.591080,100.779312 245.154633,96.214180 242.963013,88.839600 
z"/>
<path fill="#76DED2" opacity="1.000000" stroke="none" 
	d="
M141.925842,368.235352 
	C144.331055,364.727997 146.461380,361.427673 149.092529,358.592041 
	C149.970703,357.645630 152.130081,357.888062 153.703781,357.587036 
	C153.835587,358.097839 153.967392,358.608673 154.099182,359.119507 
	C152.044159,361.640991 149.984955,364.159058 147.935074,366.684723 
	C144.815231,370.528778 145.213135,375.083771 149.048141,376.250183 
	C150.527634,376.700195 152.953156,376.207825 154.093628,375.188873 
	C157.238068,372.379517 159.931351,369.065216 162.756348,366.001282 
	C165.860931,367.104523 165.903992,368.659912 164.034943,370.925934 
	C158.542725,377.584625 153.156998,384.331177 147.560623,391.252258 
	C142.398804,385.575043 149.434784,383.880676 150.472900,380.430420 
	C142.217896,379.231567 139.733566,375.858337 141.925842,368.235352 
z"/>
<path fill="#72DDCF" opacity="1.000000" stroke="none" 
	d="
M106.944923,205.871826 
	C109.153465,200.439941 108.682518,199.182312 103.483322,196.875137 
	C101.281364,195.898010 99.045547,194.997147 96.822006,194.060318 
	C96.014130,195.044327 95.218277,196.013702 93.880630,197.643005 
	C93.116791,196.214111 91.857826,194.853714 92.152115,194.248001 
	C94.058083,190.325134 94.833405,185.974869 96.622826,182.108932 
	C98.512253,178.026901 102.244507,177.936874 107.316231,181.213699 
	C106.248184,181.873245 105.292458,182.970978 104.500511,182.863373 
	C101.310608,182.429916 99.175018,184.404907 99.301750,186.733261 
	C99.418213,188.872864 101.293167,191.703156 103.207092,192.771667 
	C105.983604,194.321732 109.643600,196.906326 112.490814,192.157990 
	C112.784264,191.668610 114.600426,192.092270 116.387550,192.092270 
	C113.584221,199.010162 111.004478,205.376282 108.424744,211.742401 
	C108.223778,211.575211 108.022820,211.408035 107.821854,211.240845 
	C108.142937,213.721390 108.464020,216.201920 108.171585,218.660400 
	C106.768517,217.424789 105.978966,216.211212 105.112411,214.648468 
	C104.659683,213.213806 104.283958,212.128326 104.207825,210.902649 
	C104.918312,208.932083 110.511673,209.684662 106.944923,205.871826 
z"/>
<path fill="#72DDD1" opacity="1.000000" stroke="none" 
	d="
M186.987030,385.327698 
	C187.983383,385.326324 188.793137,385.653320 189.602890,385.980286 
	C188.685532,386.649536 187.768188,387.318756 186.498871,387.994141 
	C184.816086,388.504486 182.718536,388.645721 182.279953,389.572266 
	C179.610580,395.211304 174.735794,395.475189 169.718719,394.911469 
	C165.126663,394.395538 162.931732,390.757629 161.466827,386.863617 
	C161.026825,385.694000 161.551834,384.096680 161.886597,382.758301 
	C161.948898,382.509155 163.566788,382.227814 163.857285,382.535950 
	C164.734848,383.466766 165.939972,384.709534 165.890259,385.778290 
	C165.736603,389.081879 167.506332,391.048035 170.226105,391.440002 
	C173.905945,391.970306 176.825272,389.677887 178.574814,386.676727 
	C180.079956,384.094879 180.159958,380.718506 177.264236,379.068176 
	C175.193085,377.887756 172.329666,377.855438 169.809158,377.800964 
	C168.416000,377.770844 167.001053,378.750153 165.424957,379.338196 
	C165.185699,374.130554 170.731674,371.377594 175.986099,373.486176 
	C180.428650,375.268951 183.686630,378.047577 184.116806,383.326263 
	C184.185562,384.170135 185.865402,384.882721 186.987030,385.327698 
z"/>
<path fill="#70DDD1" opacity="1.000000" stroke="none" 
	d="
M105.189423,214.997635 
	C105.978966,216.211212 106.768517,217.424789 107.832184,218.846008 
	C106.297890,223.587372 103.133034,226.282822 98.075539,225.976593 
	C93.041687,225.671768 86.867661,221.262543 86.208923,217.186783 
	C85.902931,215.293610 86.687752,213.137299 87.303230,211.203781 
	C88.089333,208.734253 89.204079,206.369339 90.280350,203.703812 
	C94.855011,204.363022 100.538116,205.181961 106.583076,205.936371 
	C110.511673,209.684662 104.918312,208.932083 103.816177,210.877380 
	C102.459015,210.558899 101.776848,209.732330 101.129944,209.759079 
	C98.078255,209.885239 94.105019,209.156860 92.210289,210.778168 
	C89.409721,213.174606 90.383980,217.286301 93.052902,219.899902 
	C96.330734,223.109756 102.891411,223.366226 105.189423,214.997635 
z"/>
<path fill="#72DDCF" opacity="1.000000" stroke="none" 
	d="
M388.040710,185.904617 
	C391.604523,184.959061 395.147522,183.918945 398.745483,183.128754 
	C399.752563,182.907593 401.393250,183.063156 401.881165,183.703140 
	C402.353821,184.323151 401.717468,185.788651 402.644928,186.299698 
	C404.089355,189.305069 406.919495,192.477554 406.582977,195.268173 
	C406.255676,197.982422 403.056915,200.846588 400.435699,202.653885 
	C397.595551,204.612106 394.037933,205.707336 390.639160,206.576187 
	C389.530182,206.859665 387.937714,205.251678 385.497314,203.929581 
	C390.516174,202.204727 394.027313,201.037994 397.509399,199.790283 
	C401.136383,198.490677 402.841949,195.884888 401.868225,192.107162 
	C400.919922,188.428040 397.686646,188.575317 394.961121,189.102554 
	C391.990204,189.677277 389.208069,191.175079 386.255676,191.923370 
	C385.006927,192.239868 383.533508,191.670090 382.162231,191.503128 
	C382.992188,190.361267 383.794495,189.197708 384.665405,188.087997 
	C385.024170,187.630814 385.530457,187.289383 386.313110,186.474731 
	C387.117981,186.004303 387.579346,185.954468 388.040710,185.904617 
z"/>
<path fill="#72DDD1" opacity="1.000000" stroke="none" 
	d="
M392.247009,212.436935 
	C398.765472,205.544144 411.037598,205.757263 413.077789,217.789948 
	C413.631836,221.057770 410.965729,224.871597 409.475677,229.340164 
	C407.061981,227.301331 405.976746,226.384628 404.497498,225.135117 
	C405.442413,224.538177 406.045990,224.176453 406.629578,223.784988 
	C409.922729,221.575958 409.671661,218.110291 408.548187,215.314682 
	C407.240082,212.059647 403.853699,211.411865 400.500488,212.021179 
	C396.971924,212.662354 395.174683,214.911713 394.998871,218.472290 
	C394.829865,221.894669 396.028656,224.443176 399.430542,225.742874 
	C400.322754,226.083755 401.046936,226.864578 401.848297,227.443359 
	C400.735077,227.950516 399.600250,228.931854 398.512390,228.882294 
	C393.934601,228.673615 389.200623,221.340424 390.590729,216.854202 
	C391.017822,215.475830 391.565460,214.134781 392.247009,212.436935 
z"/>
<path fill="#72DDD1" opacity="1.000000" stroke="none" 
	d="
M348.172516,138.602020 
	C351.304169,143.683716 355.521790,138.446609 358.778870,140.312515 
	C358.192596,144.535172 354.303406,146.267075 349.810150,144.304016 
	C345.109619,142.250427 341.744080,137.531342 342.010651,133.367783 
	C342.278870,129.178619 346.297028,123.944664 349.919769,123.065536 
	C355.208801,121.782043 361.285767,123.828453 363.645233,128.436646 
	C364.725403,130.546265 364.525726,133.426132 364.443054,135.941467 
	C364.420197,136.636703 362.733154,137.277237 361.809692,137.942871 
	C361.219482,137.047104 359.923401,135.867767 360.151245,135.300644 
	C361.895630,130.958710 360.038544,128.093475 356.214203,126.903015 
	C354.305237,126.308792 351.306549,126.923386 349.690704,128.156952 
	C346.329376,130.723038 346.131683,134.486099 348.172516,138.602020 
z"/>
<path fill="#74DDCF" opacity="1.000000" stroke="none" 
	d="
M112.266006,336.515503 
	C115.109261,342.310455 118.842400,339.268280 122.104851,337.892761 
	C124.308258,336.963715 126.090866,335.056580 128.276703,334.057190 
	C129.292679,333.592682 130.819901,334.246399 132.115356,334.393188 
	C131.622208,335.524048 131.446609,337.133301 130.583237,337.706390 
	C125.762657,340.906281 120.775688,343.855469 115.299133,347.226746 
	C114.578773,345.837006 113.880890,344.490662 113.183014,343.144318 
	C112.982788,343.595306 112.782555,344.046295 112.582329,344.497284 
	C111.025551,341.929291 109.417114,339.390808 107.926155,336.785156 
	C106.359291,334.046875 106.479820,331.628632 109.091599,329.371643 
	C113.375755,325.669495 117.577637,321.932892 124.282906,321.639191 
	C123.543175,322.757050 123.020752,324.154388 122.018051,324.934052 
	C119.993584,326.508179 117.634895,327.645233 115.549896,329.150696 
	C113.213860,330.837463 111.228081,332.830597 112.266006,336.515503 
z"/>
<path fill="#76DED2" opacity="1.000000" stroke="none" 
	d="
M264.771423,101.204109 
	C266.995514,101.806442 268.916351,102.097397 271.520813,102.491898 
	C268.659119,106.282112 265.097107,105.289284 262.101898,104.446564 
	C259.391449,103.683983 258.768494,101.591621 259.582886,98.397186 
	C260.440735,95.032326 259.775085,91.279060 259.775085,87.237206 
	C258.477142,86.861328 256.225525,86.209267 253.973923,85.557205 
	C253.816010,85.043861 253.658096,84.530518 253.500198,84.017166 
	C255.706360,83.104240 257.912537,82.191307 260.741821,81.020531 
	C261.118195,79.605545 261.726807,77.317513 262.335938,75.027504 
	C265.589172,75.959343 265.589172,75.959343 266.350372,83.874092 
	C268.383789,83.874092 270.463074,83.874092 272.781036,83.874092 
	C272.781036,85.315895 272.781036,86.387840 272.781036,88.063538 
	C270.397247,87.749374 268.068695,87.442490 265.131470,87.055382 
	C264.910370,91.667824 264.689301,96.280281 264.771423,101.204109 
z"/>
<path fill="#74DED0" opacity="1.000000" stroke="none" 
	d="
M278.022339,403.995300 
	C277.531067,401.041168 277.040070,398.515381 276.617859,396.343292 
	C274.462036,395.570160 272.545380,394.882751 270.628693,394.195374 
	C281.818573,389.033844 283.659424,388.997345 285.660461,392.637207 
	C276.804108,396.458923 284.286011,402.685303 282.996643,407.237488 
	C285.070709,408.086884 286.603851,408.714722 288.865967,409.641144 
	C287.330536,410.673401 286.616455,411.553406 285.848724,411.602936 
	C281.704987,411.870544 277.738434,412.037140 273.662476,413.740875 
	C270.205475,415.185822 266.021667,410.978394 265.099365,406.196838 
	C266.572479,406.122803 268.007263,406.050690 269.442017,405.978577 
	C269.308655,406.458893 269.175293,406.939209 269.041931,407.419525 
	C270.844177,408.266144 272.650269,409.814575 274.447845,409.804749 
	C277.617554,409.787476 278.177216,407.137787 278.022339,403.995300 
z"/>
<path fill="#74DDCF" opacity="1.000000" stroke="none" 
	d="
M395.276184,325.889771 
	C387.495697,326.269775 381.784119,322.542877 375.136017,318.426605 
	C380.844177,315.613770 383.780334,320.058472 387.542603,320.723480 
	C389.984680,321.155060 393.184296,321.353485 395.046997,320.133453 
	C398.513306,317.863098 397.471130,313.508301 393.187958,311.070435 
	C389.846771,309.168671 386.330353,307.574829 382.586914,305.690674 
	C384.377716,302.990723 385.036255,301.068512 388.281250,304.314240 
	C390.996307,307.029907 395.304993,308.161469 398.926178,309.957825 
	C400.442017,310.709778 402.004883,311.366974 403.546356,312.067230 
	C402.525146,313.360413 401.503937,314.653625 400.320282,316.152557 
	C402.566925,320.779022 398.290771,322.933197 395.276184,325.889771 
z"/>
<path fill="#70DDD1" opacity="1.000000" stroke="none" 
	d="
M80.566452,270.218231 
	C86.564507,269.703339 92.167793,269.527435 97.711708,268.859100 
	C98.914597,268.714111 100.679237,266.898956 100.831383,265.683594 
	C101.149788,263.139954 100.395187,260.482391 100.411827,257.873718 
	C100.423729,256.007904 100.973289,254.145508 101.404678,251.548813 
	C104.683228,254.975143 107.354019,267.709717 105.677002,270.360077 
	C104.909164,271.573608 103.169067,272.704865 101.746719,272.881500 
	C94.608810,273.767792 87.438431,274.467224 80.259254,274.886658 
	C78.730949,274.975922 77.118614,273.626495 75.544991,272.939941 
	C75.716843,272.457947 75.888702,271.975952 76.060555,271.493958 
	C77.423836,271.122864 78.787109,270.751770 80.566452,270.218231 
z"/>
<path fill="#70DDD1" opacity="1.000000" stroke="none" 
	d="
M116.708771,175.277771 
	C117.298355,175.659775 117.656494,175.750534 117.857529,175.979340 
	C119.182602,177.487518 120.473846,179.025421 121.776123,180.553635 
	C119.945053,180.055420 117.934296,179.884598 116.317017,178.996902 
	C111.687744,176.455933 107.218132,173.624100 103.295387,171.272186 
	C104.436264,168.535400 105.535233,166.716415 105.946266,164.753403 
	C106.999756,159.722092 111.967209,156.364410 116.613922,158.327759 
	C120.597481,160.010910 124.344902,162.318054 128.007629,164.646729 
	C128.855515,165.185806 128.933350,166.936081 129.365540,168.129013 
	C128.298279,167.974823 127.103378,168.076538 126.187157,167.619522 
	C123.169601,166.114410 120.398499,163.945419 117.242958,162.950317 
	C115.349251,162.353134 111.233383,163.066956 111.038368,163.886719 
	C110.436775,166.415558 110.726913,169.479813 111.691780,171.934769 
	C112.255554,173.369171 114.768578,174.037445 116.708771,175.277771 
z"/>
<path fill="#74DDCF" opacity="1.000000" stroke="none" 
	d="
M367.172485,358.990356 
	C370.073456,359.174988 371.698914,352.831055 374.712189,357.530151 
	C373.652100,359.820251 373.183807,362.366241 371.655426,363.621155 
	C370.544830,364.532959 367.611481,364.410706 366.239258,363.552643 
	C363.914001,362.098633 362.201447,359.677460 360.192780,357.701996 
	C355.520203,353.106781 355.510895,353.116241 350.428314,357.935944 
	C349.536896,356.893921 348.656708,355.865021 348.602417,355.801575 
	C352.634277,351.403595 356.342743,347.358368 360.302734,343.038788 
	C360.975037,343.624756 361.934906,344.461334 362.889465,345.293304 
	C362.664673,345.654663 362.565277,345.994904 362.338806,346.151917 
	C358.024170,349.143799 358.340942,352.009338 362.414459,354.987000 
	C364.000122,356.146118 365.344574,357.635223 367.172485,358.990356 
z"/>
<path fill="#76DED2" opacity="1.000000" stroke="none" 
	d="
M128.248138,362.755920 
	C126.794762,361.629211 125.594551,360.752594 124.509377,359.959991 
	C128.577698,354.921082 132.060791,350.606995 135.543869,346.292938 
	C136.056137,346.664032 136.568405,347.035095 137.080673,347.406189 
	C135.962952,345.198151 134.845245,342.990082 133.133392,339.608307 
	C141.206131,341.475403 142.324753,349.329529 148.710678,352.314850 
	C147.177780,353.315155 146.248550,353.921509 145.210022,354.599213 
	C143.810760,353.259949 142.159775,351.679749 140.620728,350.206696 
	C138.036545,352.344818 135.530930,354.438049 133.002731,356.503601 
	C130.866486,358.248962 130.105652,359.925232 132.545670,362.187469 
	C133.280319,362.868591 133.166229,364.465149 133.440948,365.642303 
	C132.979263,365.832825 132.517578,366.023346 132.055893,366.213867 
	C130.871033,365.144562 129.686188,364.075287 128.248138,362.755920 
z"/>
<path fill="#76DED2" opacity="1.000000" stroke="none" 
	d="
M192.011200,102.985168 
	C194.054932,108.126030 196.119202,112.845299 197.954117,117.652107 
	C198.288223,118.527321 197.685760,119.760048 197.515656,120.827728 
	C196.579193,120.329826 195.110184,120.059280 194.786011,119.299980 
	C189.781158,107.576881 184.902634,95.799423 180.083954,83.998184 
	C179.756165,83.195427 180.137253,82.103241 181.394928,80.387482 
	C182.575836,81.801552 184.169922,83.038963 184.863586,84.661354 
	C187.389557,90.569160 189.614548,96.605652 192.011200,102.985168 
z"/>
<path fill="#76DED2" opacity="1.000000" stroke="none" 
	d="
M369.242126,155.217834 
	C365.171600,158.226486 368.543304,160.361252 369.727234,162.642609 
	C366.334686,164.063095 357.950531,155.720245 357.022644,148.793243 
	C359.925140,150.748886 361.939941,152.106430 364.627563,153.917297 
	C367.259003,151.790756 370.726715,149.388351 373.547852,146.379684 
	C374.129913,145.758957 372.302521,142.879044 371.482239,140.775116 
	C374.243988,137.654343 374.879211,138.013641 380.263000,146.807404 
	C376.713409,149.497787 373.108734,152.229904 369.242126,155.217834 
z"/>
<path fill="#76DED2" opacity="1.000000" stroke="none" 
	d="
M143.266907,150.273987 
	C139.867432,154.074570 136.694183,157.600357 133.290131,161.382584 
	C128.545776,158.091064 134.852203,156.208786 133.346115,152.712738 
	C130.940399,150.659531 127.721748,147.912506 124.346481,145.031815 
	C123.089287,146.658813 121.904861,148.191635 120.533531,149.966324 
	C119.647041,149.032440 118.802574,148.142838 117.986977,147.283630 
	C123.188049,139.405319 123.178284,139.417511 130.141891,144.991501 
	C132.548569,146.917908 135.017105,148.767014 137.102951,150.377716 
	C138.946838,149.209274 140.568207,147.508423 142.433701,147.175552 
	C144.610336,146.787170 145.568710,148.115952 143.266907,150.273987 
z"/>
<path fill="#76DED2" opacity="1.000000" stroke="none" 
	d="
M347.929993,378.856354 
	C352.842804,372.469391 346.317291,369.125244 344.107880,364.656189 
	C343.447266,363.319855 342.452850,362.148560 341.611389,360.901642 
	C341.954590,360.455963 342.297791,360.010315 342.641022,359.564636 
	C344.091461,360.369171 345.906433,360.859192 346.923279,362.037811 
	C349.859589,365.441345 352.470978,369.124939 355.216553,372.693512 
	C357.330933,375.441681 356.964661,375.712769 353.863495,377.514130 
	C351.802551,378.711273 350.378906,381.005463 348.343353,382.513123 
	C347.987823,381.097229 347.958923,379.976776 347.929993,378.856354 
z"/>
<path fill="#74DED0" opacity="1.000000" stroke="none" 
	d="
M143.063599,125.160110 
	C142.429428,126.437630 141.795242,127.715157 140.860733,129.597641 
	C143.487061,132.768600 146.530258,136.124512 149.145111,139.786331 
	C149.971985,140.944260 149.653961,142.919769 149.859909,144.521103 
	C149.336395,144.675690 148.812897,144.830276 148.289383,144.984863 
	C146.092545,142.408249 143.891327,139.835373 141.700104,137.254013 
	C139.477951,134.636185 137.265701,132.009964 135.215408,129.584198 
	C136.941711,127.424492 138.594513,125.356728 140.910751,123.136299 
	C142.047058,122.986694 142.519928,122.989738 142.997543,122.997528 
	C143.002274,123.002274 143.011887,123.012024 143.011795,123.370163 
	C143.029007,124.205566 143.046295,124.682838 143.063599,125.160110 
z"/>
<path fill="#72DED3" opacity="1.000000" stroke="none" 
	d="
M347.589722,379.044678 
	C347.958923,379.976776 347.987823,381.097229 348.028564,382.638153 
	C348.040405,383.058655 348.020355,383.012756 347.831146,383.091125 
	C347.366608,383.309875 347.160614,383.518677 347.023987,383.795868 
	C344.157349,385.539612 341.825775,384.563751 339.792664,382.319336 
	C336.233124,378.389832 332.703949,374.432770 328.542816,369.797485 
	C335.604553,367.782928 335.985840,373.034058 338.154846,375.615417 
	C340.618103,378.546967 342.763184,381.650177 347.589722,379.044678 
z"/>
<path fill="#ACF8F1" opacity="1.000000" stroke="none" 
	d="
M250.125366,429.884247 
	C249.751053,428.976288 249.055618,428.070038 249.050720,427.160126 
	C248.980194,414.017639 249.002441,400.874664 249.002441,387.366241 
	C250.316635,387.244202 251.484482,387.135773 252.750153,387.018250 
	C252.750153,401.498596 252.750153,415.611053 252.344147,429.340759 
	C251.938156,415.510071 251.938156,402.062164 251.938156,388.614227 
	C251.333893,388.614532 250.729630,388.614807 250.125366,388.615082 
	C250.125366,402.371490 250.125366,416.127869 250.125366,429.884247 
z"/>
<path fill="#70DDD1" opacity="1.000000" stroke="none" 
	d="
M250.413605,429.961426 
	C250.125366,416.127869 250.125366,402.371490 250.125366,388.615082 
	C250.729630,388.614807 251.333893,388.614532 251.938156,388.614227 
	C251.938156,402.062164 251.938156,415.510071 251.905273,429.418060 
	C251.482208,429.931610 251.092041,429.985107 250.413605,429.961426 
z"/>
<path fill="#76DED2" opacity="1.000000" stroke="none" 
	d="
M152.015289,121.149376 
	C155.321609,124.969627 158.655533,128.767212 161.862274,132.669296 
	C162.045074,132.891754 161.136597,134.564667 160.823639,134.537903 
	C159.854828,134.455032 158.674347,134.120316 158.029785,133.448212 
	C155.333054,130.636200 152.802032,127.665260 150.233826,124.196411 
	C150.843338,122.809967 151.429321,121.979675 152.015289,121.149376 
z"/>
<path fill="#76DED2" opacity="1.000000" stroke="none" 
	d="
M118.720856,365.241333 
	C119.131256,363.614349 119.504250,361.734955 120.576981,361.159180 
	C121.324135,360.758148 123.361961,361.862091 124.194901,362.832855 
	C124.762421,363.494293 124.244606,365.086945 124.212082,366.263214 
	C122.468781,366.023956 120.725471,365.784698 118.720856,365.241333 
z"/>
<path fill="#74DED0" opacity="1.000000" stroke="none" 
	d="
M151.644867,120.977348 
	C151.429321,121.979675 150.843338,122.809967 150.110168,123.890030 
	C148.575439,124.084480 147.187912,124.029175 145.208145,123.695999 
	C144.081238,123.282753 143.546555,123.147392 143.011887,123.012024 
	C143.011887,123.012024 143.002274,123.002274 142.998932,122.645157 
	C142.981842,121.818146 142.968063,121.348259 142.954300,120.878365 
	C145.727676,120.854012 148.501068,120.829666 151.644867,120.977348 
z"/>
<path fill="#76DED2" opacity="1.000000" stroke="none" 
	d="
M142.596710,120.911888 
	C142.968063,121.348259 142.981842,121.818146 142.994202,122.640411 
	C142.519928,122.989738 142.047058,122.986694 141.219788,122.966675 
	C141.323318,122.281609 141.781235,121.613510 142.596710,120.911888 
z"/>
<path fill="#76DED2" opacity="1.000000" stroke="none" 
	d="
M143.011795,123.370163 
	C143.546555,123.147392 144.081238,123.282753 144.795227,123.634415 
	C144.523804,124.221642 144.073044,124.592575 143.342957,125.061806 
	C143.046295,124.682838 143.029007,124.205566 143.011795,123.370163 
z"/>
<path fill="#F6FEFE" opacity="1.000000" stroke="none" 
	d="
M388.146027,185.487366 
	C387.579346,185.954468 387.117981,186.004303 386.313477,186.106354 
	C385.670837,185.971771 385.371368,185.784988 385.119507,185.121017 
	C385.216156,184.481674 385.265167,184.319534 385.314178,184.157394 
	C386.293243,184.461624 387.272278,184.765869 388.146027,185.487366 
z"/>
<path fill="#76DED2" opacity="1.000000" stroke="none" 
	d="
M347.279846,383.838501 
	C347.160614,383.518677 347.366608,383.309875 347.854187,383.100555 
	C347.889557,383.314819 347.712646,383.597961 347.279846,383.838501 
z"/>
<path fill="#F6FEFE" opacity="1.000000" stroke="none" 
	d="
M385.039795,184.863708 
	C384.669403,184.853729 384.426270,184.623856 384.183136,184.393982 
	C384.398254,184.267548 384.613373,184.141113 385.071350,184.086029 
	C385.265167,184.319534 385.216156,184.481674 385.039795,184.863708 
z"/>
<path fill="#F6FEFE" opacity="1.000000" stroke="none" 
	d="
M389.241211,184.273926 
	C389.548767,184.275803 389.624054,184.496368 389.699310,184.716949 
	C389.469177,184.642181 389.239044,184.567413 389.241211,184.273926 
z"/>
<path fill="#000000" opacity="1.000000" stroke="none" 
	d="
M379.406982,330.145630 
	C382.953796,332.231567 386.134766,334.418304 384.578766,338.763519 
	C383.340424,342.221497 380.590454,344.865936 376.694580,343.734619 
	C373.160278,342.708282 370.201141,340.273071 371.011505,335.770172 
	C371.808258,331.342712 374.440186,329.268616 379.406982,330.145630 
z"/>
<path fill="#000000" opacity="1.000000" stroke="none" 
	d="
M174.826599,114.541000 
	C174.923279,116.070465 175.163742,117.332787 174.779068,118.361244 
	C173.551025,121.644287 171.074753,124.732933 167.661819,123.700562 
	C165.336426,122.997154 163.197815,119.710793 162.188080,117.108879 
	C160.852646,113.667610 162.442566,110.581612 166.212860,109.392204 
	C170.596954,108.009155 172.822647,110.859818 174.826599,114.541000 
z"/>
<path fill="#000000" opacity="1.000000" stroke="none" 
	d="
M212.010040,99.941666 
	C210.668564,94.218605 209.344009,88.907082 208.017166,83.586449 
	C216.458557,81.986832 217.448502,82.423340 218.988892,88.322540 
	C222.356476,101.219276 222.134659,101.887871 213.208344,104.794029 
	C212.812042,103.304359 212.419495,101.828781 212.010040,99.941666 
z"/>
<path fill="#000000" opacity="1.000000" stroke="none" 
	d="
M379.219482,177.463623 
	C377.905670,173.953445 376.677979,170.788300 380.324219,167.393097 
	C382.292542,171.265945 384.027435,174.679489 386.160675,178.876862 
	C383.008057,178.383682 381.199402,178.100754 379.219482,177.463623 
z"/>
<path fill="#000000" opacity="1.000000" stroke="none" 
	d="
M389.737671,167.298035 
	C391.553467,169.978836 393.991211,172.510162 388.765320,173.992996 
	C387.408203,171.338531 386.029053,168.640991 384.649902,165.943466 
	C384.958710,165.572983 385.267517,165.202499 385.576324,164.832016 
	C386.876831,165.559677 388.177338,166.287338 389.737671,167.298035 
z"/>
<path fill="#000000" opacity="1.000000" stroke="none" 
	d="
M86.994110,239.786102 
	C86.926537,236.215622 87.653534,233.614899 92.203117,232.605301 
	C91.699966,236.669769 91.272919,240.119461 90.643784,245.201645 
	C88.956039,242.886200 87.976044,241.541702 86.994110,239.786102 
z"/>
<path fill="#000000" opacity="1.000000" stroke="none" 
	d="
M304.197021,401.307312 
	C301.112946,403.780548 298.481018,403.841644 295.384094,400.729370 
	C299.059631,399.253387 302.192841,397.995178 305.326050,396.736969 
	C305.623016,397.026672 305.919983,397.316406 306.216949,397.606140 
	C305.635254,398.742218 305.053558,399.878326 304.197021,401.307312 
z"/>
<path fill="#F6FEFE" opacity="1.000000" stroke="none" 
	d="
M104.022064,310.202515 
	C105.280952,312.633636 106.234062,314.867188 107.235374,317.213715 
	C101.157684,317.832123 99.065720,314.815857 101.023094,308.310455 
	C101.986153,308.916412 102.851219,309.460663 104.022064,310.202515 
z"/>
<path fill="#F6FEFE" opacity="1.000000" stroke="none" 
	d="
M411.536682,242.068558 
	C410.951355,244.622482 410.163605,246.897873 409.375824,249.173248 
	C408.784424,249.062073 408.192993,248.950897 407.601562,248.839722 
	C407.601562,244.939911 407.601562,241.040100 407.601562,235.602341 
	C409.184357,238.226120 410.259308,240.008072 411.536682,242.068558 
z"/>
<path fill="#000000" opacity="1.000000" stroke="none" 
	d="
M323.418274,388.235413 
	C325.309143,387.332001 326.879791,386.629395 328.450439,385.926758 
	C328.828827,386.217285 329.207214,386.507843 329.585602,386.798370 
	C328.438599,388.643066 327.691254,391.152374 326.034210,392.148926 
	C324.315674,393.182343 321.716003,392.750610 319.501709,392.959717 
	C319.402679,392.501770 319.303650,392.043854 319.204620,391.585938 
	C320.502441,390.536041 321.800262,389.486115 323.418274,388.235413 
z"/>
<path fill="#000000" opacity="1.000000" stroke="none" 
	d="
M201.974960,395.589478 
	C200.856857,397.688751 200.116760,400.132874 198.572021,400.854492 
	C196.758163,401.701813 193.508194,401.950592 192.188248,400.866882 
	C189.393250,398.572021 188.576874,394.689911 191.009995,391.753204 
	C192.570099,389.870178 195.601089,388.360535 198.030441,388.272278 
	C200.645035,388.177277 202.665634,390.391876 202.005325,393.692291 
	C201.910309,394.167175 201.995300,394.678101 201.974960,395.589478 
z"/>
<path fill="#000000" opacity="1.000000" stroke="none" 
	d="
M284.068024,104.986954 
	C281.152771,101.978210 280.548676,98.468956 282.184998,95.155090 
	C283.056366,93.390427 285.354401,91.378181 287.121582,91.266464 
	C289.020020,91.146439 291.586426,92.679718 292.910034,94.278946 
	C295.475983,97.379173 293.428101,100.431755 291.403870,102.974869 
	C289.689270,105.128937 287.743011,107.655891 284.068024,104.986954 
z"/>
<path fill="#000000" opacity="1.000000" stroke="none" 
	d="
M243.045837,89.240776 
	C245.154633,96.214180 243.591080,100.779312 238.930237,100.841492 
	C237.000397,100.867233 234.128998,99.682594 233.296829,98.165016 
	C231.570206,95.016235 231.106781,91.331398 234.233170,88.271912 
	C236.352829,86.197571 238.509323,85.575180 241.018555,87.556564 
	C241.625778,88.036057 242.312729,88.414619 243.045837,89.240776 
z"/>
<path fill="#000000" opacity="1.000000" stroke="none" 
	d="
M105.112411,214.648468 
	C102.891411,223.366226 96.330734,223.109756 93.052902,219.899902 
	C90.383980,217.286301 89.409721,213.174606 92.210289,210.778168 
	C94.105019,209.156860 98.078255,209.885239 101.129944,209.759079 
	C101.776848,209.732330 102.459015,210.558899 103.516586,211.017578 
	C104.283958,212.128326 104.659683,213.213806 105.112411,214.648468 
z"/>
</svg>